<?xml version="1.0" encoding="UTF-8" standalone="no"?>
<!-- Created with Inkscape (http://www.inkscape.org/) -->

<svg
   width="500"
   height="500"
   viewBox="0 0 132.29166 132.29167"
   version="1.1"
   id="svg5"
   inkscape:version="1.1.1 (3bf5ae0d25, 2021-09-20)"
   sodipodi:docname="logo1.svg"
   inkscape:export-filename="C:\Users\Ryzen\Desktop\Designs\Projects\ExpenseSnake\logo1.png"
   inkscape:export-xdpi="96"
   inkscape:export-ydpi="96"
   xmlns:inkscape="http://www.inkscape.org/namespaces/inkscape"
   xmlns:sodipodi="http://sodipodi.sourceforge.net/DTD/sodipodi-0.dtd"
   xmlns="http://www.w3.org/2000/svg"
   xmlns:svg="http://www.w3.org/2000/svg">
  <sodipodi:namedview
     id="namedview7"
     pagecolor="#ffffff"
     bordercolor="#666666"
     borderopacity="1.0"
     inkscape:pageshadow="2"
     inkscape:pageopacity="0.0"
     inkscape:pagecheckerboard="0"
     inkscape:document-units="mm"
     showgrid="false"
     units="px"
     borderlayer="true"
     inkscape:zoom="0.16872805"
     inkscape:cx="563.03621"
     inkscape:cy="527.47603"
     inkscape:window-width="1366"
     inkscape:window-height="715"
     inkscape:window-x="-8"
     inkscape:window-y="-8"
     inkscape:window-maximized="1"
     inkscape:current-layer="layer1" />
  <defs
     id="defs2" />
  <g
     inkscape:groupmode="layer"
     id="layer2"
     inkscape:label="Background 1">
    <rect
       style="opacity:1;fill:#ffffff;stroke:#000000;stroke-width:0.209;stroke-miterlimit:4;stroke-dasharray:none"
       id="rect19581"
       width="131.92975"
       height="131.96948"
       x="0.27657965"
       y="0.27782786" />
  </g>
  <g
     inkscape:label="Layer 1"
     inkscape:groupmode="layer"
     id="layer1">
    <ellipse
       style="opacity:0.466513;fill:none;stroke:#000000;stroke-width:0.264583;stroke-opacity:1"
       id="path6618"
       cx="68.280655"
       cy="-85.874413"
       rx="42.333344"
       ry="42.333336" />
    <ellipse
       style="opacity:0.466513;fill:none;stroke:#000000;stroke-width:0.264583;stroke-opacity:1"
       id="path6620"
       cx="68.280655"
       cy="-85.874413"
       rx="26.458344"
       ry="26.458326" />
    <circle
       style="opacity:0.466513;fill:none;stroke:#000000;stroke-width:0.264583;stroke-opacity:1"
       id="path6622"
       cx="68.280655"
       cy="-85.874413"
       r="15.875" />
    <ellipse
       style="opacity:0.466513;fill:none;stroke:#000000;stroke-width:0.264583;stroke-opacity:1"
       id="path6624"
       cx="68.280655"
       cy="-85.874413"
       rx="10.583344"
       ry="10.583328" />
    <ellipse
       style="opacity:0.466513;fill:none;stroke:#000000;stroke-width:0.264583;stroke-opacity:1"
       id="path6626"
       cx="68.280655"
       cy="-85.874413"
       rx="5.2916718"
       ry="5.2916641" />
    <path
       id="rect11489"
       style="opacity:1;fill:#ffffff;stroke:#000000;stroke-width:0.222418;stroke-opacity:1"
       d="m 36.256177,50.893695 a 1.4099321,1.40993 0 0 0 -0.435928,0.06895 1.4099321,1.40993 0 0 0 -0.393004,0.199981 1.4099321,1.40993 0 0 0 -0.311911,0.311912 1.4099321,1.40993 0 0 0 -0.199996,0.393365 1.4099321,1.40993 0 0 0 -0.06937,0.435566 1.4099321,1.40993 0 0 0 0.06937,0.435566 1.4099321,1.40993 0 0 0 0.199996,0.392996 1.4099321,1.40993 0 0 0 0.311911,0.311904 1.4099321,1.40993 0 0 0 0.393004,0.20035 1.4099321,1.40993 0 0 0 0.435928,0.06902 1.4099321,1.40993 0 0 0 0.435551,-0.06902 1.4099321,1.40993 0 0 0 0.393003,-0.20035 1.4099321,1.40993 0 0 0 0.311912,-0.311904 1.4099321,1.40993 0 0 0 0.20035,-0.392996 1.4099321,1.40993 0 0 0 0.06902,-0.435566 1.4099321,1.40993 0 0 0 -0.06902,-0.435566 1.4099321,1.40993 0 0 0 -0.20035,-0.393365 1.4099321,1.40993 0 0 0 -0.311912,-0.311912 1.4099321,1.40993 0 0 0 -0.393003,-0.199981 1.4099321,1.40993 0 0 0 -0.435551,-0.06895 z" />
    <path
       id="path4261"
       style="opacity:1;fill:#99cc33;stroke:#000000;stroke-width:0.222418;stroke-opacity:1"
       d="m 43.886436,78.413194 a 18.787653,18.787641 0 0 1 -0.908907,1.121749 18.787653,18.787641 0 0 1 -1.390736,1.390727 18.787653,18.787641 0 0 1 -1.476591,1.195882 18.787653,18.787641 0 0 1 0.683995,0.444371 18.787653,18.787641 0 0 1 1.528321,1.237343 18.787653,18.787641 0 0 1 1.390736,1.390721 18.787653,18.787641 0 0 1 1.020114,1.260094 18.787653,18.787641 0 0 0 0.239242,-0.239248 18.787653,18.787641 0 0 0 0.447317,-0.479967 18.787653,18.787641 0 0 0 0.430048,-0.494638 18.787653,18.787641 0 0 0 0.412822,-0.509691 18.787653,18.787641 0 0 0 0.394821,-0.52363 18.787653,18.787641 0 0 0 0.277792,-0.397038 18.787653,18.787641 0 0 0 -0.0057,-0.01612 18.787653,18.787641 0 0 0 -0.234847,-0.612433 18.787653,18.787641 0 0 0 -0.25651,-0.603628 18.787653,18.787641 0 0 0 -0.27704,-0.594085 18.787653,18.787641 0 0 0 -0.297596,-0.584549 18.787653,18.787641 0 0 0 -0.318132,-0.573535 18.787653,18.787641 0 0 0 -0.337595,-0.562159 18.787653,18.787641 0 0 0 -0.357038,-0.550053 18.787653,18.787641 0 0 0 -0.376111,-0.536838 18.787653,18.787641 0 0 0 -0.394842,-0.524006 18.787653,18.787641 0 0 0 -0.19376,-0.239242 z" />
    <path
       id="path4259"
       style="opacity:1;fill:#669900;stroke:#000000;stroke-width:0.222418;stroke-opacity:1"
       d="m 29.773327,78.978655 a 18.787653,18.787641 0 0 1 1.941875,0.102011 18.787653,18.787641 0 0 1 1.942251,0.307502 18.787653,18.787641 0 0 1 1.899312,0.508953 18.787653,18.787641 0 0 1 1.836192,0.7049 18.787653,18.787641 0 0 1 1.752176,0.892782 18.787653,18.787641 0 0 1 0.965069,0.626749 18.787653,18.787641 0 0 0 1.476591,-1.195882 18.787653,18.787641 0 0 0 1.390736,-1.390727 18.787653,18.787641 0 0 0 0.908907,-1.121749 18.787653,18.787641 0 0 0 -0.219061,-0.270443 18.787653,18.787641 0 0 0 -0.430048,-0.494644 18.787653,18.787641 0 0 0 -0.447317,-0.479599 18.787653,18.787641 0 0 0 -0.463807,-0.46382 18.787653,18.787641 0 0 0 -0.479612,-0.44731 18.787653,18.787641 0 0 0 -0.494644,-0.430055 18.787653,18.787641 0 0 0 -0.509692,-0.412815 18.787653,18.787641 0 0 0 -0.523985,-0.394466 18.787653,18.787641 0 0 0 -0.339434,-0.238155 18.787653,18.787641 0 0 1 -0.36585,0.296127 18.787653,18.787641 0 0 1 -0.523992,0.394834 18.787653,18.787641 0 0 1 -0.537215,0.376125 18.787653,18.787641 0 0 1 -0.549683,0.357038 18.787653,18.787641 0 0 1 -0.562166,0.337957 18.787653,18.787641 0 0 1 -0.573528,0.31777 18.787653,18.787641 0 0 1 -0.584542,0.297596 18.787653,18.787641 0 0 1 -0.594085,0.277409 18.787653,18.787641 0 0 1 -0.603628,0.256135 18.787653,18.787641 0 0 1 -0.612441,0.234839 18.787653,18.787641 0 0 1 -0.620145,0.213564 18.787653,18.787641 0 0 1 -0.627111,0.191915 18.787653,18.787641 0 0 1 -0.633352,0.169533 18.787653,18.787641 0 0 1 -0.638835,0.147505 18.787653,18.787641 0 0 1 -0.643627,0.125132 18.787653,18.787641 0 0 1 -0.648023,0.102749 18.787653,18.787641 0 0 1 -0.6506,0.07999 18.787653,18.787641 0 0 1 -0.236686,0.02052 z" />
    <path
       id="path4257"
       style="opacity:1;fill:#ff0000;stroke:#000000;stroke-width:0.222418;stroke-opacity:1"
       d="m 28.223349,79.057915 a 18.787653,18.787641 0 0 0 0.478504,-0.0084 18.787653,18.787641 0 0 0 0.654634,-0.03451 18.787653,18.787641 0 0 0 0.41684,-0.03635 18.787653,18.787641 0 0 0 -0.02202,-0.0014 18.787653,18.787641 0 0 0 -1.527959,0.08036 z" />
    <path
       id="path4249"
       style="opacity:1;fill:#ffcc00;stroke:#000000;stroke-width:0.222418;stroke-opacity:1"
       d="m 12.906292,49.156573 a 30.06024,30.060234 0 0 1 0.04367,-0.03118 30.06024,30.060234 0 0 1 2.134165,-1.27147 30.06024,30.060234 0 0 1 2.232121,-1.0913 30.06024,30.060234 0 0 1 2.314698,-0.90305 30.06024,30.060234 0 0 1 2.381125,-0.708941 30.06024,30.060234 0 0 1 2.431386,-0.510053 30.06024,30.060234 0 0 1 2.465504,-0.307133 30.06024,30.060234 0 0 1 2.482391,-0.102749 30.06024,30.060234 0 0 1 2.482397,0.102749 30.06024,30.060234 0 0 1 2.465499,0.307133 30.06024,30.060234 0 0 1 2.431384,0.510053 30.06024,30.060234 0 0 1 2.381126,0.708941 30.06024,30.060234 0 0 1 1.662634,0.648762 18.787653,18.787641 0 0 0 -0.197041,-0.197049 18.787653,18.787641 0 0 0 -1.528343,-1.237712 18.787653,18.787641 0 0 0 -1.649064,-1.07075 18.787653,18.787641 0 0 0 -1.752155,-0.892782 18.787653,18.787641 0 0 0 -1.836213,-0.704901 18.787653,18.787641 0 0 0 -1.899298,-0.508955 18.787653,18.787641 0 0 0 -1.942251,-0.307501 18.787653,18.787641 0 0 0 -1.963909,-0.103112 18.787653,18.787641 0 0 0 -1.963887,0.103112 18.787653,18.787641 0 0 0 -1.94225,0.307501 18.787653,18.787641 0 0 0 -1.899675,0.508955 18.787653,18.787641 0 0 0 -1.835837,0.704901 18.787653,18.787641 0 0 0 -1.752169,0.892782 18.787653,18.787641 0 0 0 -1.649425,1.07075 18.787653,18.787641 0 0 0 -1.528322,1.237712 18.787653,18.787641 0 0 0 -1.390359,1.390722 18.787653,18.787641 0 0 0 -1.177888,1.454579 z" />
    <path
       id="path4221"
       style="opacity:1;fill:#99cc33;stroke:#000000;stroke-width:0.222418;stroke-opacity:1"
       d="m 11.382345,60.545848 a 11.272587,11.272587 0 0 1 0.35595,-0.721417 11.272587,11.272587 0 0 1 0.819012,-1.225968 11.272587,11.272587 0 0 1 0.97241,-1.108548 11.272587,11.272587 0 0 1 1.108548,-0.972403 11.272587,11.272587 0 0 1 1.225968,-0.819025 11.272587,11.272587 0 0 1 1.322482,-0.652433 11.272587,11.272587 0 0 1 1.396224,-0.473725 11.272587,11.272587 0 0 1 1.446144,-0.287684 11.272587,11.272587 0 0 1 1.471443,-0.09651 11.272587,11.272587 0 0 1 0.505651,0.01137 11.272587,11.272587 0 0 1 0.50492,0.03416 11.272587,11.272587 0 0 1 0.502718,0.05653 11.272587,11.272587 0 0 1 0.499417,0.07926 11.272587,11.272587 0 0 1 0.495745,0.101279 11.272587,11.272587 0 0 1 0.490604,0.123662 11.272587,11.272587 0 0 1 0.484363,0.145673 11.272587,11.272587 0 0 1 0.477397,0.166962 11.272587,11.272587 0 0 1 0.469692,0.188243 11.272587,11.272587 0 0 1 0.173936,0.07889 18.787653,18.787641 0 0 1 1.446874,-0.387493 18.787653,18.787641 0 0 1 1.942244,-0.307864 18.787653,18.787641 0 0 1 1.963894,-0.102749 18.787653,18.787641 0 0 1 0.655727,0.01136 18.787653,18.787641 0 0 1 0.654634,0.03451 18.787653,18.787641 0 0 1 0.653526,0.05688 18.787653,18.787641 0 0 1 0.650977,0.07999 18.787653,18.787641 0 0 1 0.647647,0.102742 18.787653,18.787641 0 0 1 0.643626,0.125131 18.787653,18.787641 0 0 1 0.638856,0.147513 18.787653,18.787641 0 0 1 0.63373,0.169533 18.787653,18.787641 0 0 1 0.627089,0.191907 18.787653,18.787641 0 0 1 0.61979,0.213565 18.787653,18.787641 0 0 1 0.61242,0.234846 18.787653,18.787641 0 0 1 0.603627,0.256127 18.787653,18.787641 0 0 1 0.594462,0.277409 18.787653,18.787641 0 0 1 0.584179,0.297597 18.787653,18.787641 0 0 1 0.573535,0.318145 18.787653,18.787641 0 0 1 0.562159,0.337589 18.787653,18.787641 0 0 1 0.550046,0.357037 18.787653,18.787641 0 0 1 0.537214,0.376117 18.787653,18.787641 0 0 1 0.52363,0.394836 18.787653,18.787641 0 0 1 0.509692,0.412814 18.787653,18.787641 0 0 1 0.494637,0.430063 18.787653,18.787641 0 0 1 0.479599,0.447311 18.787653,18.787641 0 0 1 0.463827,0.46382 18.787653,18.787641 0 0 1 0.447317,0.479597 18.787653,18.787641 0 0 1 0.430048,0.494638 18.787653,18.787641 0 0 1 0.412822,0.509691 18.787653,18.787641 0 0 1 0.394821,0.523631 18.787653,18.787641 0 0 1 0.07413,0.105682 18.787653,18.787641 0 0 0 0.05617,-0.642158 18.787653,18.787641 0 0 0 0.03231,-0.610594 18.787653,18.787641 0 0 0 -0.150085,-0.435208 18.787653,18.787641 0 0 0 -0.234846,-0.612434 18.787653,18.787641 0 0 0 -0.256503,-0.603621 18.787653,18.787641 0 0 0 -0.277047,-0.594454 18.787653,18.787641 0 0 0 -0.297597,-0.584179 18.787653,18.787641 0 0 0 -0.318131,-0.573535 18.787653,18.787641 0 0 0 -0.337588,-0.562167 18.787653,18.787641 0 0 0 -0.357045,-0.550045 18.787653,18.787641 0 0 0 -0.376124,-0.537215 18.787653,18.787641 0 0 0 -0.394829,-0.52363 18.787653,18.787641 0 0 0 -0.412821,-0.509691 18.787653,18.787641 0 0 0 -0.430049,-0.494638 18.787653,18.787641 0 0 0 -0.44731,-0.479967 18.787653,18.787641 0 0 0 -0.463835,-0.46345 18.787653,18.787641 0 0 0 -0.47959,-0.447311 18.787653,18.787641 0 0 0 -0.494638,-0.430062 18.787653,18.787641 0 0 0 -0.509691,-0.412815 18.787653,18.787641 0 0 0 -0.52363,-0.394835 18.787653,18.787641 0 0 0 -0.537215,-0.376117 18.787653,18.787641 0 0 0 -0.550045,-0.357038 18.787653,18.787641 0 0 0 -0.562167,-0.337589 18.787653,18.787641 0 0 0 -0.573527,-0.318146 18.787653,18.787641 0 0 0 -0.584187,-0.297596 18.787653,18.787641 0 0 0 -0.594461,-0.277408 18.787653,18.787641 0 0 0 -0.603629,-0.256128 18.787653,18.787641 0 0 0 -0.612419,-0.234846 18.787653,18.787641 0 0 0 -0.619783,-0.213565 18.787653,18.787641 0 0 0 -0.627097,-0.191907 18.787653,18.787641 0 0 0 -0.633721,-0.169533 18.787653,18.787641 0 0 0 -0.638856,-0.147513 18.787653,18.787641 0 0 0 -0.643627,-0.125131 18.787653,18.787641 0 0 0 -0.647647,-0.102742 18.787653,18.787641 0 0 0 -0.650977,-0.07999 18.787653,18.787641 0 0 0 -0.653526,-0.05688 18.787653,18.787641 0 0 0 -0.654641,-0.03451 18.787653,18.787641 0 0 0 -0.65572,-0.01137 18.787653,18.787641 0 0 0 -1.963894,0.102749 18.787653,18.787641 0 0 0 -1.942251,0.307864 18.787653,18.787641 0 0 0 -1.899674,0.508953 18.787653,18.787641 0 0 0 -1.83583,0.704539 18.787653,18.787641 0 0 0 -1.752176,0.892782 18.787653,18.787641 0 0 0 -1.649426,1.071112 18.787653,18.787641 0 0 0 -1.528336,1.237712 18.787653,18.787641 0 0 0 -1.390359,1.390729 18.787653,18.787641 0 0 0 -1.237691,1.527959 18.787653,18.787641 0 0 0 -1.071127,1.649426 18.787653,18.787641 0 0 0 -0.892788,1.752169 18.787653,18.787641 0 0 0 -0.469693,1.223765 z m 24.873832,-9.652153 a 1.4099321,1.40993 0 0 1 0.435551,0.06895 1.4099321,1.40993 0 0 1 0.393003,0.199981 1.4099321,1.40993 0 0 1 0.311912,0.311912 1.4099321,1.40993 0 0 1 0.20035,0.393365 1.4099321,1.40993 0 0 1 0.06902,0.435566 1.4099321,1.40993 0 0 1 -0.06902,0.435566 1.4099321,1.40993 0 0 1 -0.20035,0.392996 1.4099321,1.40993 0 0 1 -0.311912,0.311904 1.4099321,1.40993 0 0 1 -0.393003,0.20035 1.4099321,1.40993 0 0 1 -0.435551,0.06902 1.4099321,1.40993 0 0 1 -0.435928,-0.06902 1.4099321,1.40993 0 0 1 -0.393004,-0.20035 1.4099321,1.40993 0 0 1 -0.311911,-0.311904 1.4099321,1.40993 0 0 1 -0.199996,-0.392996 1.4099321,1.40993 0 0 1 -0.06937,-0.435566 1.4099321,1.40993 0 0 1 0.06937,-0.435566 1.4099321,1.40993 0 0 1 0.199996,-0.393365 1.4099321,1.40993 0 0 1 0.311911,-0.311912 1.4099321,1.40993 0 0 1 0.393004,-0.199981 1.4099321,1.40993 0 0 1 0.435928,-0.06895 z" />
    <path
       id="path4219"
       style="opacity:1;fill:#669900;stroke:#000000;stroke-width:0.222418;stroke-opacity:1"
       d="m 10.271602,66.127827 a 11.272587,11.272587 0 0 0 0.01541,0.235586 18.787653,18.787641 0 0 0 0.595555,1.551448 18.787653,18.787641 0 0 0 0.892767,1.752168 18.787653,18.787641 0 0 0 0.99774,1.536034 18.787653,18.787641 0 0 1 0,-0.0035 18.787653,18.787641 0 0 1 0.307849,-1.942244 18.787653,18.787641 0 0 1 0.50896,-1.899681 18.787653,18.787641 0 0 1 0.704539,-1.835831 18.787653,18.787641 0 0 1 0.892788,-1.752168 18.787653,18.787641 0 0 1 1.07112,-1.649427 18.787653,18.787641 0 0 1 1.237691,-1.527959 18.787653,18.787641 0 0 1 1.390359,-1.390728 18.787653,18.787641 0 0 1 1.528343,-1.237713 18.787653,18.787641 0 0 1 1.649419,-1.070743 18.787653,18.787641 0 0 1 1.752176,-0.893151 18.787653,18.787641 0 0 1 1.835838,-0.704539 18.787653,18.787641 0 0 1 0.452798,-0.12146 11.272587,11.272587 0 0 0 -0.173935,-0.07889 11.272587,11.272587 0 0 0 -0.469692,-0.188243 11.272587,11.272587 0 0 0 -0.477397,-0.166963 11.272587,11.272587 0 0 0 -0.484362,-0.145673 11.272587,11.272587 0 0 0 -0.490605,-0.123661 11.272587,11.272587 0 0 0 -0.495745,-0.10128 11.272587,11.272587 0 0 0 -0.499416,-0.07926 11.272587,11.272587 0 0 0 -0.502719,-0.05653 11.272587,11.272587 0 0 0 -0.504919,-0.03416 11.272587,11.272587 0 0 0 -0.505651,-0.01137 11.272587,11.272587 0 0 0 -1.471444,0.09651 11.272587,11.272587 0 0 0 -1.446143,0.287683 11.272587,11.272587 0 0 0 -1.396225,0.473726 11.272587,11.272587 0 0 0 -1.322482,0.652433 11.272587,11.272587 0 0 0 -1.225967,0.819025 11.272587,11.272587 0 0 0 -1.108548,0.972403 11.272587,11.272587 0 0 0 -0.972411,1.108548 11.272587,11.272587 0 0 0 -0.819011,1.225968 11.272587,11.272587 0 0 0 -0.355952,0.721417 18.787653,18.787641 0 0 0 -0.234838,0.612064 18.787653,18.787641 0 0 0 -0.50896,1.899681 18.787653,18.787641 0 0 0 -0.307857,1.942244 18.787653,18.787641 0 0 0 -0.05908,1.12799 z" />
    <path
       id="path4217"
       style="opacity:1;fill:#ff0000;stroke:#000000;stroke-width:0.222418;stroke-opacity:1"
       d="m 10.271602,66.127827 a 18.787653,18.787641 0 0 1 0.05908,-1.127989 18.787653,18.787641 0 0 1 0.307857,-1.942244 18.787653,18.787641 0 0 1 0.508959,-1.899681 18.787653,18.787641 0 0 1 0.234839,-0.612065 11.272587,11.272587 0 0 0 -0.296481,0.601058 11.272587,11.272587 0 0 0 -0.473733,1.396225 11.272587,11.272587 0 0 0 -0.287676,1.446136 11.272587,11.272587 0 0 0 -0.09652,1.471458 11.272587,11.272587 0 0 0 0.04367,0.667102 z" />
    <path
       id="path4177"
       style="opacity:1;fill:#669900;stroke:#000000;stroke-width:0.222418;stroke-opacity:1"
       d="m 21.835175,76.711292 a 11.272587,11.272587 0 0 1 -0.334649,0.02202 11.272587,11.272587 0 0 1 -1.471443,-0.09651 11.272587,11.272587 0 0 1 -1.446144,-0.287683 11.272587,11.272587 0 0 1 -0.483276,-0.16403 18.787653,18.787641 0 0 0 0.552624,0.358876 18.787653,18.787641 0 0 0 1.752168,0.892776 18.787653,18.787641 0 0 0 0.388608,0.148982 18.787653,18.787641 0 0 1 0.159974,-0.159989 18.787653,18.787641 0 0 1 0.882138,-0.714444 z" />
    <path
       id="path4175"
       style="opacity:1;fill:#669900;stroke:#000000;stroke-width:0.222418;stroke-opacity:1"
       d="m 29.876438,72.969908 a 11.272587,11.272587 0 0 0 0.567308,-0.646922 11.272587,11.272587 0 0 0 0.54161,-0.810583 18.787653,18.787641 0 0 0 -0.399614,-0.03486 18.787653,18.787641 0 0 0 -0.654634,-0.03451 18.787653,18.787641 0 0 0 -0.655727,-0.01137 18.787653,18.787641 0 0 0 -1.963887,0.103111 18.787653,18.787641 0 0 0 -1.942251,0.307502 18.787653,18.787641 0 0 0 -1.899674,0.508953 18.787653,18.787641 0 0 0 -1.835838,0.704901 18.787653,18.787641 0 0 0 -1.752176,0.892782 18.787653,18.787641 0 0 0 -1.649419,1.071118 18.787653,18.787641 0 0 0 -0.857547,0.694257 18.787653,18.787641 0 0 0 0.725074,0.470794 11.272587,11.272587 0 0 0 0.483276,0.164029 11.272587,11.272587 0 0 0 1.446144,0.287683 11.272587,11.272587 0 0 0 1.471443,0.09651 11.272587,11.272587 0 0 0 0.334649,-0.02202 18.787653,18.787641 0 0 1 0.646198,-0.523262 18.787653,18.787641 0 0 1 1.649426,-1.07075 18.787653,18.787641 0 0 1 1.752176,-0.892782 18.787653,18.787641 0 0 1 1.83583,-0.7049 18.787653,18.787641 0 0 1 1.899674,-0.50896 18.787653,18.787641 0 0 1 0.257959,-0.04076 z" />
    <path
       id="path4173"
       style="opacity:1;fill:#99cc33;stroke:#000000;stroke-width:0.222418;stroke-opacity:1"
       d="m 33.524625,72.600025 a 18.787653,18.78764 0 0 0 -1.963895,0.103119 18.787653,18.78764 0 0 0 -1.684292,0.266764 18.787653,18.78764 0 0 0 -0.257959,0.04076 18.787653,18.78764 0 0 0 -1.899674,0.508961 18.787653,18.78764 0 0 0 -1.83583,0.7049 18.787653,18.78764 0 0 0 -1.752176,0.892782 18.787653,18.78764 0 0 0 -1.649426,1.07075 18.787653,18.78764 0 0 0 -0.646198,0.523261 18.787653,18.78764 0 0 0 -0.882138,0.714444 18.787653,18.78764 0 0 0 -0.159974,0.159989 18.787653,18.78764 0 0 0 1.447229,0.555556 18.787653,18.78764 0 0 0 1.899675,0.508953 18.787653,18.78764 0 0 0 1.94225,0.307871 18.787653,18.78764 0 0 0 1.963887,0.102742 18.787653,18.78764 0 0 0 0.177245,-0.0028 18.787653,18.78764 0 0 1 1.527959,-0.08036 18.787653,18.78764 0 0 1 0.02202,0.0014 18.787653,18.78764 0 0 0 0.236685,-0.02052 18.787653,18.78764 0 0 0 0.650601,-0.07999 18.787653,18.78764 0 0 0 0.648022,-0.102749 18.787653,18.78764 0 0 0 0.643628,-0.125131 18.787653,18.78764 0 0 0 0.638834,-0.147506 18.787653,18.78764 0 0 0 0.633353,-0.169533 18.787653,18.78764 0 0 0 0.627111,-0.191914 18.787653,18.78764 0 0 0 0.620145,-0.213565 18.787653,18.78764 0 0 0 0.61244,-0.234839 18.787653,18.78764 0 0 0 0.603629,-0.256134 18.787653,18.78764 0 0 0 0.594085,-0.277409 18.787653,18.78764 0 0 0 0.584541,-0.297596 18.787653,18.78764 0 0 0 0.573527,-0.31777 18.787653,18.78764 0 0 0 0.562167,-0.337958 18.787653,18.78764 0 0 0 0.549684,-0.357037 18.787653,18.78764 0 0 0 0.537214,-0.376125 18.787653,18.78764 0 0 0 0.523992,-0.394835 18.787653,18.78764 0 0 0 0.36585,-0.296126 18.787653,18.78764 0 0 0 -0.197425,-0.138339 18.787653,18.78764 0 0 0 -0.550045,-0.357037 18.787653,18.78764 0 0 0 -0.56216,-0.337588 18.787653,18.78764 0 0 0 -0.573535,-0.31814 18.787653,18.78764 0 0 0 -0.584534,-0.297596 18.787653,18.78764 0 0 0 -0.594106,-0.277046 18.787653,18.78764 0 0 0 -0.475927,-0.20219 18.787653,18.78764 0 0 0 -0.952592,-0.150807 18.787653,18.78764 0 0 0 -1.963888,-0.103119 z" />
    <path
       id="path4171"
       style="opacity:1;fill:#669900;stroke:#000000;stroke-width:0.222418;stroke-opacity:1"
       d="m 36.441104,72.853952 a 18.787653,18.787641 0 0 0 -0.127681,-0.05432 18.787653,18.787641 0 0 0 -0.61244,-0.234846 18.787653,18.787641 0 0 0 -0.620145,-0.213558 18.787653,18.787641 0 0 0 -0.627111,-0.191545 18.787653,18.787641 0 0 0 -0.633353,-0.169902 18.787653,18.787641 0 0 0 -0.638856,-0.147506 18.787653,18.787641 0 0 0 -0.643627,-0.12513 18.787653,18.787641 0 0 0 -0.648023,-0.102743 18.787653,18.787641 0 0 0 -0.650593,-0.07963 18.787653,18.787641 0 0 0 -0.253919,-0.02237 11.272587,11.272587 0 0 1 -0.54161,0.810582 11.272587,11.272587 0 0 1 -0.567308,0.646922 18.787653,18.787641 0 0 1 1.684292,-0.266764 18.787653,18.787641 0 0 1 1.963895,-0.103118 18.787653,18.787641 0 0 1 1.963887,0.103118 18.787653,18.787641 0 0 1 0.952592,0.150808 z" />
    <path
       id="path4111"
       style="opacity:1;fill:#f9f9f9;stroke:#000000;stroke-width:0.222418;stroke-opacity:1"
       d="m 47.601412,91.912775 a 18.787653,18.787641 0 0 1 0.01797,0.04694 18.787653,18.787641 0 0 1 0.236316,0.881775 18.787653,18.787641 0 0 0 0.104211,-0.658305 18.787653,18.787641 0 0 0 0.02975,-0.563991 30.06024,30.060234 0 0 1 -0.388231,0.293555 z" />
    <path
       id="path4109"
       style="opacity:1;fill:#669900;stroke:#000000;stroke-width:0.222418;stroke-opacity:1"
       d="m 47.601412,91.912775 a 30.06024,30.060234 0 0 0 0.388232,-0.293555 18.787653,18.787641 0 0 0 0.07338,-1.399903 18.787653,18.787641 0 0 0 -0.01137,-0.655734 18.787653,18.787641 0 0 0 -0.03451,-0.654634 18.787653,18.787641 0 0 0 -0.05723,-0.653526 18.787653,18.787641 0 0 0 -0.07962,-0.6506 18.787653,18.787641 0 0 0 -0.102749,-0.648023 18.787653,18.787641 0 0 0 -0.125124,-0.643627 18.787653,18.787641 0 0 0 -0.14752,-0.638849 18.787653,18.787641 0 0 0 -0.169902,-0.633353 18.787653,18.787641 0 0 0 -0.191538,-0.627111 18.787653,18.787641 0 0 0 -0.208055,-0.603991 18.787653,18.787641 0 0 1 -0.277791,0.397038 18.787653,18.787641 0 0 1 -0.394821,0.52363 18.787653,18.787641 0 0 1 -0.412823,0.509691 18.787653,18.787641 0 0 1 -0.430047,0.494638 18.787653,18.787641 0 0 1 -0.447318,0.479967 18.787653,18.787641 0 0 1 -0.239242,0.239248 18.787653,18.787641 0 0 1 0.217222,0.268242 18.787653,18.787641 0 0 1 1.07112,1.64905 18.787653,18.787641 0 0 1 0.892774,1.752168 18.787653,18.787641 0 0 1 0.686929,1.789234 z" />
    <path
       style="opacity:1;fill:#99cc33;stroke:#000000;stroke-width:0.211605;stroke-miterlimit:4;stroke-dasharray:none"
       d="m 16.56199,75.388803 c -1.432652,-0.706611 -2.614189,-1.877356 -3.353486,-3.322889 -0.178182,-0.348403 -0.300473,-0.680552 -0.300054,-0.815041 0.0022,-0.742138 0.499616,-2.905445 0.980563,-4.2651 0.699781,-1.978281 1.949707,-4.442117 2.523511,-4.858283 0.118577,-0.086 0.53179,-0.155359 0.547859,-0.140376 0.01619,0.01498 -0.02663,0.209765 -0.09488,0.432852 -0.318544,1.041453 -0.365005,2.731389 -0.106562,3.876343 0.68947,3.054605 3.315681,5.437868 6.439129,5.84349 l 0.493153,0.06405 -0.883394,0.321101 c -1.900427,0.69079 -3.447643,1.529506 -4.924732,2.669597 -0.343248,0.264939 -0.649095,0.482047 -0.679657,0.482459 -0.03061,3.76e-4 -0.31924,-0.12927 -0.641448,-0.288195 z"
       id="path13693"
       sodipodi:nodetypes="sscssccsscsssss" />
    <path
       style="opacity:1;fill:#99cc33;stroke:#000000;stroke-width:0.148408;stroke-miterlimit:4;stroke-dasharray:none"
       d="m 16.476709,62.027098 c 0,-0.0071 0.280724,-0.374207 0.402845,-0.526797 0.109779,-0.13716 0.2474,-0.304115 0.24926,-0.302389 0.0022,7.1e-4 -0.01051,0.02982 -0.0257,0.06405 -0.07916,0.178281 -0.116822,0.365474 -0.112371,0.558297 l 0.0022,0.09294 -0.06753,0.0057 c -0.113024,0.0098 -0.327335,0.06007 -0.41714,0.09776 -0.01733,0.0072 -0.03145,0.01186 -0.03153,0.01023 z"
       id="path16031" />
    <text
       xml:space="preserve"
       style="font-style:normal;font-variant:normal;font-weight:normal;font-stretch:normal;font-size:10.2037px;line-height:1.25;font-family:Poppins;-inkscape-font-specification:'Poppins, Normal';font-variant-ligatures:normal;font-variant-caps:normal;font-variant-numeric:normal;font-variant-east-asian:normal;fill:#000000;fill-opacity:1;stroke:none;stroke-width:0.255094"
       x="51.639259"
       y="74.313095"
       id="text18645"><tspan
         sodipodi:role="line"
         id="tspan18643"
         style="font-style:normal;font-variant:normal;font-weight:normal;font-stretch:normal;font-size:10.2037px;font-family:Poppins;-inkscape-font-specification:'Poppins, Normal';font-variant-ligatures:normal;font-variant-caps:normal;font-variant-numeric:normal;font-variant-east-asian:normal;stroke-width:0.255094"
         x="51.639259"
         y="74.313095">ExpenseSnake</tspan></text>
  </g>
</svg>
