<?xml version="1.0" encoding="UTF-8" standalone="no"?>
<!-- Created with Inkscape (http://www.inkscape.org/) -->

<svg
   width="500"
   height="500"
   viewBox="0 0 132.29166 132.29167"
   version="1.1"
   id="svg5"
   inkscape:version="1.1.1 (3bf5ae0d25, 2021-09-20)"
   sodipodi:docname="logo.svg"
   inkscape:export-filename="C:\Users\Ryzen\Desktop\Designs\Projects\ExpenseSnake\icon.png"
   inkscape:export-xdpi="96"
   inkscape:export-ydpi="96"
   xmlns:inkscape="http://www.inkscape.org/namespaces/inkscape"
   xmlns:sodipodi="http://sodipodi.sourceforge.net/DTD/sodipodi-0.dtd"
   xmlns="http://www.w3.org/2000/svg"
   xmlns:svg="http://www.w3.org/2000/svg">
  <sodipodi:namedview
     id="namedview7"
     pagecolor="#ffffff"
     bordercolor="#666666"
     borderopacity="1.0"
     inkscape:pageshadow="2"
     inkscape:pageopacity="0.0"
     inkscape:pagecheckerboard="0"
     inkscape:document-units="mm"
     showgrid="false"
     units="px"
     borderlayer="true"
     inkscape:zoom="0.47723499"
     inkscape:cx="188.58634"
     inkscape:cy="1368.2987"
     inkscape:window-width="1366"
     inkscape:window-height="715"
     inkscape:window-x="-8"
     inkscape:window-y="-8"
     inkscape:window-maximized="1"
     inkscape:current-layer="layer2" />
  <defs
     id="defs2" />
  <g
     inkscape:groupmode="layer"
     id="layer2"
     inkscape:label="Background 1">
    <rect
       style="opacity:1;fill:#ffffff;stroke:#000000;stroke-width:0.209;stroke-miterlimit:4;stroke-dasharray:none"
       id="rect926"
       width="131.92975"
       height="131.96948"
       x="0.27657965"
       y="154.4035"
       inkscape:export-filename="C:\Users\Ryzen\Desktop\Designs\Projects\ExpenseSnake\icon.png"
       inkscape:export-xdpi="96"
       inkscape:export-ydpi="96" />
    <rect
       style="opacity:1;fill:#000000;stroke:#000000;stroke-width:0.209;stroke-miterlimit:4;stroke-dasharray:none"
       id="rect960"
       width="131.92975"
       height="131.96948"
       x="0.27657965"
       y="301.87628"
       inkscape:export-filename="C:\Users\Ryzen\Desktop\Designs\Projects\ExpenseSnake\icon-dark.png"
       inkscape:export-xdpi="96"
       inkscape:export-ydpi="96" />
  </g>
  <g
     inkscape:label="Layer 1"
     inkscape:groupmode="layer"
     id="layer1">
    <ellipse
       style="opacity:0.466513;fill:none;stroke:#000000;stroke-width:0.264583;stroke-opacity:1"
       id="path6618"
       cx="68.280655"
       cy="-85.874413"
       rx="42.333344"
       ry="42.333336" />
    <ellipse
       style="opacity:0.466513;fill:none;stroke:#000000;stroke-width:0.264583;stroke-opacity:1"
       id="path6620"
       cx="68.280655"
       cy="-85.874413"
       rx="26.458344"
       ry="26.458326" />
    <circle
       style="opacity:0.466513;fill:none;stroke:#000000;stroke-width:0.264583;stroke-opacity:1"
       id="path6622"
       cx="68.280655"
       cy="-85.874413"
       r="15.875" />
    <ellipse
       style="opacity:0.466513;fill:none;stroke:#000000;stroke-width:0.264583;stroke-opacity:1"
       id="path6624"
       cx="68.280655"
       cy="-85.874413"
       rx="10.583344"
       ry="10.583328" />
    <ellipse
       style="opacity:0.466513;fill:none;stroke:#000000;stroke-width:0.264583;stroke-opacity:1"
       id="path6626"
       cx="68.280655"
       cy="-85.874413"
       rx="5.2916718"
       ry="5.2916641" />
    <path
       id="rect11489"
       style="opacity:1;fill:#ffffff;stroke:#000000;stroke-width:0.461887;stroke-opacity:1"
       d="m 81.611807,33.422354 a 2.9279529,2.9279485 0 0 0 -0.905275,0.143186 2.9279529,2.9279485 0 0 0 -0.816137,0.415293 2.9279529,2.9279485 0 0 0 -0.647733,0.647736 2.9279529,2.9279485 0 0 0 -0.415324,0.816886 2.9279529,2.9279485 0 0 0 -0.144059,0.904524 2.9279529,2.9279485 0 0 0 0.144059,0.904523 2.9279529,2.9279485 0 0 0 0.415324,0.81612 2.9279529,2.9279485 0 0 0 0.647733,0.64772 2.9279529,2.9279485 0 0 0 0.816137,0.416059 2.9279529,2.9279485 0 0 0 0.905275,0.143331 2.9279529,2.9279485 0 0 0 0.904493,-0.143331 2.9279529,2.9279485 0 0 0 0.816134,-0.416059 2.9279529,2.9279485 0 0 0 0.647736,-0.64772 2.9279529,2.9279485 0 0 0 0.416059,-0.81612 2.9279529,2.9279485 0 0 0 0.143332,-0.904523 A 2.9279529,2.9279485 0 0 0 84.396229,35.445455 2.9279529,2.9279485 0 0 0 83.98017,34.628569 2.9279529,2.9279485 0 0 0 83.332434,33.980833 2.9279529,2.9279485 0 0 0 82.5163,33.56554 2.9279529,2.9279485 0 0 0 81.611807,33.422354 Z" />
    <path
       id="path4261"
       style="opacity:1;fill:#99cc33;stroke:#000000;stroke-width:0.461887;stroke-opacity:1"
       d="m 97.457279,90.571061 a 39.015611,39.015586 0 0 1 -1.887493,2.329494 39.015611,39.015586 0 0 1 -2.888089,2.88807 39.015611,39.015586 0 0 1 -3.066381,2.483443 39.015611,39.015586 0 0 1 1.420426,0.922809 39.015611,39.015586 0 0 1 3.173807,2.569543 39.015611,39.015586 0 0 1 2.888089,2.88806 39.015611,39.015586 0 0 1 2.118432,2.61679 39.015611,39.015586 0 0 0 0.496825,-0.49684 39.015611,39.015586 0 0 0 0.928925,-0.99673 39.015611,39.015586 0 0 0 0.89307,-1.02719 39.015611,39.015586 0 0 0 0.85729,-1.05846 39.015611,39.015586 0 0 0 0.81991,-1.0874 39.015611,39.015586 0 0 0 0.57688,-0.82452 39.015611,39.015586 0 0 0 -0.0118,-0.0335 39.015611,39.015586 0 0 0 -0.4877,-1.27182 39.015611,39.015586 0 0 0 -0.53268,-1.253531 39.015611,39.015586 0 0 0 -0.57532,-1.233714 39.015611,39.015586 0 0 0 -0.61801,-1.213911 39.015611,39.015586 0 0 0 -0.66065,-1.191039 39.015611,39.015586 0 0 0 -0.70107,-1.167414 39.015611,39.015586 0 0 0 -0.74145,-1.142274 39.015611,39.015586 0 0 0 -0.781056,-1.114832 39.015611,39.015586 0 0 0 -0.819953,-1.088183 39.015611,39.015586 0 0 0 -0.402374,-0.496825 z" />
    <path
       id="path4259"
       style="opacity:1;fill:#669900;stroke:#000000;stroke-width:0.461887;stroke-opacity:1"
       d="m 68.149117,91.745332 a 39.015611,39.015586 0 0 1 4.032619,0.211843 39.015611,39.015586 0 0 1 4.033399,0.638578 39.015611,39.015586 0 0 1 3.94423,1.056923 39.015611,39.015586 0 0 1 3.813151,1.463839 39.015611,39.015586 0 0 1 3.638677,1.854007 39.015611,39.015586 0 0 1 2.004123,1.301546 39.015611,39.015586 0 0 0 3.066381,-2.483443 39.015611,39.015586 0 0 0 2.888089,-2.88807 39.015611,39.015586 0 0 0 1.887493,-2.329494 39.015611,39.015586 0 0 0 -0.454916,-0.561619 39.015611,39.015586 0 0 0 -0.893065,-1.027208 39.015611,39.015586 0 0 0 -0.928926,-0.995966 39.015611,39.015586 0 0 0 -0.96317,-0.963197 39.015611,39.015586 0 0 0 -0.995993,-0.928912 39.015611,39.015586 0 0 0 -1.027208,-0.893079 39.015611,39.015586 0 0 0 -1.058458,-0.857277 39.015611,39.015586 0 0 0 -1.08814,-0.819173 39.015611,39.015586 0 0 0 -0.70489,-0.494568 39.015611,39.015586 0 0 1 -0.759747,0.614956 39.015611,39.015586 0 0 1 -1.088154,0.819937 39.015611,39.015586 0 0 1 -1.115615,0.781085 39.015611,39.015586 0 0 1 -1.141505,0.741447 39.015611,39.015586 0 0 1 -1.167429,0.701823 39.015611,39.015586 0 0 1 -1.191024,0.659901 39.015611,39.015586 0 0 1 -1.213897,0.618006 39.015611,39.015586 0 0 1 -1.233714,0.576085 39.015611,39.015586 0 0 1 -1.253531,0.531906 39.015611,39.015586 0 0 1 -1.271833,0.487681 39.015611,39.015586 0 0 1 -1.287832,0.4435 39.015611,39.015586 0 0 1 -1.302298,0.398543 39.015611,39.015586 0 0 1 -1.315258,0.352063 39.015611,39.015586 0 0 1 -1.326645,0.306318 39.015611,39.015586 0 0 1 -1.336596,0.259857 39.015611,39.015586 0 0 1 -1.345725,0.213375 39.015611,39.015586 0 0 1 -1.351076,0.166112 39.015611,39.015586 0 0 1 -0.491517,0.04261 z" />
    <path
       id="path4257"
       style="opacity:1;fill:#ff0000;stroke:#000000;stroke-width:0.461887;stroke-opacity:1"
       d="m 64.930336,91.909929 a 39.015611,39.015586 0 0 0 0.993691,-0.01744 39.015611,39.015586 0 0 0 1.359454,-0.07167 39.015611,39.015586 0 0 0 0.865636,-0.07549 39.015611,39.015586 0 0 0 -0.04573,-0.0029 39.015611,39.015586 0 0 0 -3.173055,0.166881 z" />
    <path
       id="path4249"
       style="opacity:1;fill:#ffcc00;stroke:#000000;stroke-width:0.461887;stroke-opacity:1"
       d="m 33.121981,29.814939 a 62.424968,62.424955 0 0 1 0.09069,-0.06475 62.424968,62.424955 0 0 1 4.43194,-2.640414 62.424968,62.424955 0 0 1 4.635362,-2.266261 62.424968,62.424955 0 0 1 4.806846,-1.87533 62.424968,62.424955 0 0 1 4.944792,-1.472231 62.424968,62.424955 0 0 1 5.049168,-1.059208 62.424968,62.424955 0 0 1 5.120019,-0.637812 62.424968,62.424955 0 0 1 5.155088,-0.213375 62.424968,62.424955 0 0 1 5.1551,0.213375 62.424968,62.424955 0 0 1 5.120009,0.637812 62.424968,62.424955 0 0 1 5.049164,1.059208 62.424968,62.424955 0 0 1 4.944794,1.472231 62.424968,62.424955 0 0 1 3.45273,1.347259 39.015611,39.015586 0 0 0 -0.409188,-0.409204 39.015611,39.015586 0 0 0 -3.173852,-2.57031 39.015611,39.015586 0 0 0 -3.424549,-2.223586 39.015611,39.015586 0 0 0 -3.638635,-1.854007 39.015611,39.015586 0 0 0 -3.813194,-1.463841 39.015611,39.015586 0 0 0 -3.944201,-1.056928 39.015611,39.015586 0 0 0 -4.033399,-0.638575 39.015611,39.015586 0 0 0 -4.078376,-0.214129 39.015611,39.015586 0 0 0 -4.07833,0.214129 39.015611,39.015586 0 0 0 -4.033397,0.638575 39.015611,39.015586 0 0 0 -3.944984,1.056928 39.015611,39.015586 0 0 0 -3.812413,1.463841 39.015611,39.015586 0 0 0 -3.638663,1.854007 39.015611,39.015586 0 0 0 -3.425299,2.223586 39.015611,39.015586 0 0 0 -3.173809,2.57031 39.015611,39.015586 0 0 0 -2.887306,2.88806 39.015611,39.015586 0 0 0 -2.446076,3.02067 z" />
    <path
       id="path4221"
       style="opacity:1;fill:#99cc33;stroke:#000000;stroke-width:0.461887;stroke-opacity:1"
       d="m 29.957258,53.466617 a 23.409357,23.409357 0 0 1 0.739188,-1.49814 23.409357,23.409357 0 0 1 1.700811,-2.545921 23.409357,23.409357 0 0 1 2.019367,-2.30208 23.409357,23.409357 0 0 1 2.30208,-2.019353 23.409357,23.409357 0 0 1 2.545922,-1.700838 23.409357,23.409357 0 0 1 2.746348,-1.354883 23.409357,23.409357 0 0 1 2.899486,-0.983767 23.409357,23.409357 0 0 1 3.003153,-0.597423 23.409357,23.409357 0 0 1 3.05569,-0.200418 23.409357,23.409357 0 0 1 1.050066,0.02361 23.409357,23.409357 0 0 1 1.048549,0.07094 23.409357,23.409357 0 0 1 1.043975,0.117394 23.409357,23.409357 0 0 1 1.037121,0.164596 23.409357,23.409357 0 0 1 1.029495,0.210322 23.409357,23.409357 0 0 1 1.018818,0.256805 23.409357,23.409357 0 0 1 1.005859,0.302513 23.409357,23.409357 0 0 1 0.991392,0.346724 23.409357,23.409357 0 0 1 0.975392,0.390917 23.409357,23.409357 0 0 1 0.361206,0.163828 39.015611,39.015586 0 0 1 3.004669,-0.804692 39.015611,39.015586 0 0 1 4.033385,-0.63933 39.015611,39.015586 0 0 1 4.078345,-0.213375 39.015611,39.015586 0 0 1 1.361723,0.02359 39.015611,39.015586 0 0 1 1.359454,0.07167 39.015611,39.015586 0 0 1 1.357153,0.11812 39.015611,39.015586 0 0 1 1.351859,0.166113 39.015611,39.015586 0 0 1 1.344944,0.21336 39.015611,39.015586 0 0 1 1.336594,0.259855 39.015611,39.015586 0 0 1 1.326688,0.306335 39.015611,39.015586 0 0 1 1.316043,0.352062 39.015611,39.015586 0 0 1 1.302253,0.398526 39.015611,39.015586 0 0 1 1.287094,0.443503 39.015611,39.015586 0 0 1 1.27179,0.487696 39.015611,39.015586 0 0 1 1.253529,0.531889 39.015611,39.015586 0 0 1 1.234497,0.576085 39.015611,39.015586 0 0 1 1.213142,0.618008 39.015611,39.015586 0 0 1 1.191039,0.66068 39.015611,39.015586 0 0 1 1.167414,0.701058 39.015611,39.015586 0 0 1 1.14226,0.741446 39.015611,39.015586 0 0 1 1.115612,0.781068 39.015611,39.015586 0 0 1 1.087403,0.819941 39.015611,39.015586 0 0 1 1.058458,0.857275 39.015611,39.015586 0 0 1 1.027194,0.893096 39.015611,39.015586 0 0 1 0.995965,0.928913 39.015611,39.015586 0 0 1 0.963212,0.963198 39.015611,39.015586 0 0 1 0.928925,0.995961 39.015611,39.015586 0 0 1 0.89307,1.027196 39.015611,39.015586 0 0 1 0.85729,1.058456 39.015611,39.015586 0 0 1 0.81991,1.087405 39.015611,39.015586 0 0 1 0.15394,0.219466 39.015611,39.015586 0 0 0 0.11665,-1.333546 39.015611,39.015586 0 0 0 0.0671,-1.267997 39.015611,39.015586 0 0 0 -0.31168,-0.90378 39.015611,39.015586 0 0 0 -0.48769,-1.271819 39.015611,39.015586 0 0 0 -0.53267,-1.253517 39.015611,39.015586 0 0 0 -0.57534,-1.23448 39.015611,39.015586 0 0 0 -0.61801,-1.213143 39.015611,39.015586 0 0 0 -0.66065,-1.191038 39.015611,39.015586 0 0 0 -0.701053,-1.167431 39.015611,39.015586 0 0 0 -0.741462,-1.142258 39.015611,39.015586 0 0 0 -0.781083,-1.115614 39.015611,39.015586 0 0 0 -0.819926,-1.087403 39.015611,39.015586 0 0 0 -0.85729,-1.058456 39.015611,39.015586 0 0 0 -0.89307,-1.027199 A 39.015611,39.015586 0 0 0 94.640945,39.691607 39.015611,39.015586 0 0 0 93.677716,38.729178 39.015611,39.015586 0 0 0 92.681769,37.800264 39.015611,39.015586 0 0 0 91.654573,36.90717 39.015611,39.015586 0 0 0 90.596117,36.049893 39.015611,39.015586 0 0 0 89.508715,35.229954 39.015611,39.015586 0 0 0 88.3931,34.448886 39.015611,39.015586 0 0 0 87.250843,33.707439 39.015611,39.015586 0 0 0 86.083412,33.00638 39.015611,39.015586 0 0 0 84.89239,32.345698 a 39.015611,39.015586 0 0 0 -1.213159,-0.618006 39.015611,39.015586 0 0 0 -1.234495,-0.576083 39.015611,39.015586 0 0 0 -1.253534,-0.531891 39.015611,39.015586 0 0 0 -1.271787,-0.487696 39.015611,39.015586 0 0 0 -1.28708,-0.443502 39.015611,39.015586 0 0 0 -1.302269,-0.398526 39.015611,39.015586 0 0 0 -1.316024,-0.352063 39.015611,39.015586 0 0 0 -1.326689,-0.306335 39.015611,39.015586 0 0 0 -1.336596,-0.259855 39.015611,39.015586 0 0 0 -1.344944,-0.21336 39.015611,39.015586 0 0 0 -1.351859,-0.166112 39.015611,39.015586 0 0 0 -1.357153,-0.118121 39.015611,39.015586 0 0 0 -1.359468,-0.07167 39.015611,39.015586 0 0 0 -1.361709,-0.02361 39.015611,39.015586 0 0 0 -4.078345,0.213375 39.015611,39.015586 0 0 0 -4.033399,0.639329 39.015611,39.015586 0 0 0 -3.944982,1.056924 39.015611,39.015586 0 0 0 -3.812399,1.463089 39.015611,39.015586 0 0 0 -3.638678,1.854007 39.015611,39.015586 0 0 0 -3.4253,2.224338 39.015611,39.015586 0 0 0 -3.173838,2.57031 39.015611,39.015586 0 0 0 -2.887306,2.888075 39.015611,39.015586 0 0 0 -2.570267,3.173054 39.015611,39.015586 0 0 0 -2.224369,3.425301 39.015611,39.015586 0 0 0 -1.854019,3.638664 39.015611,39.015586 0 0 0 -0.975394,2.541346 z M 81.611807,33.422354 a 2.9279529,2.9279485 0 0 1 0.904493,0.143186 2.9279529,2.9279485 0 0 1 0.816134,0.415293 2.9279529,2.9279485 0 0 1 0.647736,0.647736 2.9279529,2.9279485 0 0 1 0.416059,0.816886 2.9279529,2.9279485 0 0 1 0.143332,0.904524 2.9279529,2.9279485 0 0 1 -0.143332,0.904523 2.9279529,2.9279485 0 0 1 -0.416059,0.81612 2.9279529,2.9279485 0 0 1 -0.647736,0.64772 2.9279529,2.9279485 0 0 1 -0.816134,0.416059 2.9279529,2.9279485 0 0 1 -0.904493,0.143331 2.9279529,2.9279485 0 0 1 -0.905275,-0.143331 2.9279529,2.9279485 0 0 1 -0.816137,-0.416059 2.9279529,2.9279485 0 0 1 -0.647733,-0.64772 2.9279529,2.9279485 0 0 1 -0.415324,-0.81612 2.9279529,2.9279485 0 0 1 -0.144059,-0.904523 2.9279529,2.9279485 0 0 1 0.144059,-0.904524 2.9279529,2.9279485 0 0 1 0.415324,-0.816886 2.9279529,2.9279485 0 0 1 0.647733,-0.647736 2.9279529,2.9279485 0 0 1 0.816137,-0.415293 2.9279529,2.9279485 0 0 1 0.905275,-0.143186 z" />
    <path
       id="path4219"
       style="opacity:1;fill:#669900;stroke:#000000;stroke-width:0.461887;stroke-opacity:1"
       d="m 27.65062,65.058502 a 23.409357,23.409357 0 0 0 0.032,0.489233 39.015611,39.015586 0 0 0 1.236767,3.221833 39.015611,39.015586 0 0 0 1.853975,3.638662 39.015611,39.015586 0 0 0 2.071969,3.189824 39.015611,39.015586 0 0 1 0,-0.0073 39.015611,39.015586 0 0 1 0.639299,-4.033385 39.015611,39.015586 0 0 1 1.056938,-3.944996 39.015611,39.015586 0 0 1 1.463089,-3.812401 39.015611,39.015586 0 0 1 1.85402,-3.638661 39.015611,39.015586 0 0 1 2.224354,-3.425303 39.015611,39.015586 0 0 1 2.570266,-3.173055 39.015611,39.015586 0 0 1 2.887307,-2.888072 39.015611,39.015586 0 0 1 3.173852,-2.570312 39.015611,39.015586 0 0 1 3.425286,-2.223572 39.015611,39.015586 0 0 1 3.638678,-1.854773 39.015611,39.015586 0 0 1 3.812416,-1.463089 39.015611,39.015586 0 0 1 0.940308,-0.252232 23.409357,23.409357 0 0 0 -0.361204,-0.163828 23.409357,23.409357 0 0 0 -0.975392,-0.390917 23.409357,23.409357 0 0 0 -0.991392,-0.346726 23.409357,23.409357 0 0 0 -1.005857,-0.302513 23.409357,23.409357 0 0 0 -1.01882,-0.256802 23.409357,23.409357 0 0 0 -1.029495,-0.210325 23.409357,23.409357 0 0 0 -1.037119,-0.164596 23.409357,23.409357 0 0 0 -1.043977,-0.117394 23.409357,23.409357 0 0 0 -1.048547,-0.07094 23.409357,23.409357 0 0 0 -1.050066,-0.02361 23.409357,23.409357 0 0 0 -3.055692,0.200419 23.409357,23.409357 0 0 0 -3.003151,0.59742 23.409357,23.409357 0 0 0 -2.899488,0.983769 23.409357,23.409357 0 0 0 -2.746348,1.354883 23.409357,23.409357 0 0 0 -2.54592,1.700838 23.409357,23.409357 0 0 0 -2.30208,2.019353 23.409357,23.409357 0 0 0 -2.019369,2.30208 23.409357,23.409357 0 0 0 -1.700809,2.545921 23.409357,23.409357 0 0 0 -0.739192,1.49814 39.015611,39.015586 0 0 0 -0.48768,1.27105 39.015611,39.015586 0 0 0 -1.056938,3.944996 39.015611,39.015586 0 0 0 -0.639315,4.033385 39.015611,39.015586 0 0 0 -0.122689,2.342454 z" />
    <path
       id="path4217"
       style="opacity:1;fill:#ff0000;stroke:#000000;stroke-width:0.461887;stroke-opacity:1"
       d="m 27.65062,65.058502 a 39.015611,39.015586 0 0 1 0.122689,-2.342452 39.015611,39.015586 0 0 1 0.639315,-4.033385 39.015611,39.015586 0 0 1 1.056936,-3.944996 39.015611,39.015586 0 0 1 0.487681,-1.271052 23.409357,23.409357 0 0 0 -0.615691,1.248194 23.409357,23.409357 0 0 0 -0.983783,2.899488 23.409357,23.409357 0 0 0 -0.597406,3.003136 23.409357,23.409357 0 0 0 -0.20044,3.055722 23.409357,23.409357 0 0 0 0.09069,1.385345 z" />
    <path
       id="path4177"
       style="opacity:1;fill:#669900;stroke:#000000;stroke-width:0.461887;stroke-opacity:1"
       d="m 51.664256,87.036785 a 23.409357,23.409357 0 0 1 -0.694953,0.04573 23.409357,23.409357 0 0 1 -3.05569,-0.200418 23.409357,23.409357 0 0 1 -3.003153,-0.597421 23.409357,23.409357 0 0 1 -1.003601,-0.340635 39.015611,39.015586 0 0 0 1.147613,0.745264 39.015611,39.015586 0 0 0 3.638662,1.853995 39.015611,39.015586 0 0 0 0.807007,0.309385 39.015611,39.015586 0 0 1 0.332212,-0.332243 39.015611,39.015586 0 0 1 1.831903,-1.483659 z" />
    <path
       id="path4175"
       style="opacity:1;fill:#669900;stroke:#000000;stroke-width:0.461887;stroke-opacity:1"
       d="m 68.363244,79.267194 a 23.409357,23.409357 0 0 0 1.178107,-1.343439 23.409357,23.409357 0 0 0 1.124741,-1.683307 39.015611,39.015586 0 0 0 -0.829863,-0.07239 39.015611,39.015586 0 0 0 -1.359454,-0.07167 39.015611,39.015586 0 0 0 -1.361724,-0.02361 39.015611,39.015586 0 0 0 -4.07833,0.214126 39.015611,39.015586 0 0 0 -4.033399,0.638578 39.015611,39.015586 0 0 0 -3.944982,1.056924 39.015611,39.015586 0 0 0 -3.812415,1.463841 39.015611,39.015586 0 0 0 -3.638678,1.854007 39.015611,39.015586 0 0 0 -3.425286,2.22435 39.015611,39.015586 0 0 0 -1.780836,1.441737 39.015611,39.015586 0 0 0 1.505734,0.977681 23.409357,23.409357 0 0 0 1.003601,0.340632 23.409357,23.409357 0 0 0 3.003153,0.597421 23.409357,23.409357 0 0 0 3.05569,0.200419 23.409357,23.409357 0 0 0 0.694953,-0.04573 39.015611,39.015586 0 0 1 1.341935,-1.086638 39.015611,39.015586 0 0 1 3.425301,-2.223586 39.015611,39.015586 0 0 1 3.638678,-1.854007 39.015611,39.015586 0 0 1 3.812399,-1.463839 39.015611,39.015586 0 0 1 3.944981,-1.056938 39.015611,39.015586 0 0 1 0.535694,-0.08465 z" />
    <path
       id="path4173"
       style="opacity:1;fill:#99cc33;stroke:#000000;stroke-width:0.461887;stroke-opacity:1"
       d="m 75.939296,78.499072 a 39.015611,39.015584 0 0 0 -4.078347,0.214143 39.015611,39.015584 0 0 0 -3.497705,0.553979 39.015611,39.015584 0 0 0 -0.535694,0.08464 39.015611,39.015584 0 0 0 -3.944981,1.05694 39.015611,39.015584 0 0 0 -3.812399,1.463839 39.015611,39.015584 0 0 0 -3.638678,1.854007 39.015611,39.015584 0 0 0 -3.425301,2.223586 39.015611,39.015584 0 0 0 -1.341935,1.086636 39.015611,39.015584 0 0 0 -1.831903,1.483659 39.015611,39.015584 0 0 0 -0.332212,0.332243 39.015611,39.015584 0 0 0 3.005406,1.153703 39.015611,39.015584 0 0 0 3.944984,1.056923 39.015611,39.015584 0 0 0 4.033397,0.639344 39.015611,39.015584 0 0 0 4.07833,0.213361 39.015611,39.015584 0 0 0 0.368078,-0.0058 39.015611,39.015584 0 0 1 3.173055,-0.16688 39.015611,39.015584 0 0 1 0.04573,0.0029 39.015611,39.015584 0 0 0 0.491515,-0.04261 39.015611,39.015584 0 0 0 1.351079,-0.166112 39.015611,39.015584 0 0 0 1.345722,-0.213375 39.015611,39.015584 0 0 0 1.336598,-0.259855 39.015611,39.015584 0 0 0 1.326643,-0.30632 39.015611,39.015584 0 0 0 1.31526,-0.352063 39.015611,39.015584 0 0 0 1.302298,-0.398541 39.015611,39.015584 0 0 0 1.287832,-0.443502 39.015611,39.015584 0 0 0 1.271831,-0.487681 39.015611,39.015584 0 0 0 1.253533,-0.531904 39.015611,39.015584 0 0 0 1.233714,-0.576085 39.015611,39.015584 0 0 0 1.213895,-0.618007 39.015611,39.015584 0 0 0 1.191021,-0.659901 39.015611,39.015584 0 0 0 1.167432,-0.701824 39.015611,39.015584 0 0 0 1.141508,-0.741445 39.015611,39.015584 0 0 0 1.115612,-0.781085 39.015611,39.015584 0 0 0 1.088154,-0.819939 39.015611,39.015584 0 0 0 0.759747,-0.614954 39.015611,39.015584 0 0 0 -0.409985,-0.287283 39.015611,39.015584 0 0 0 -1.142258,-0.741445 39.015611,39.015584 0 0 0 -1.167416,-0.701057 39.015611,39.015584 0 0 0 -1.191039,-0.660669 39.015611,39.015584 0 0 0 -1.21388,-0.618006 39.015611,39.015584 0 0 0 -1.233757,-0.575331 39.015611,39.015584 0 0 0 -0.98834,-0.419881 39.015611,39.015584 0 0 0 -1.978212,-0.313175 39.015611,39.015584 0 0 0 -4.078332,-0.214143 z" />
    <path
       id="path4171"
       style="opacity:1;fill:#669900;stroke:#000000;stroke-width:0.461887;stroke-opacity:1"
       d="m 81.995838,79.026393 a 39.015611,39.015586 0 0 0 -0.26515,-0.112805 39.015611,39.015586 0 0 0 -1.271831,-0.487696 39.015611,39.015586 0 0 0 -1.287832,-0.443487 39.015611,39.015586 0 0 0 -1.302298,-0.397775 39.015611,39.015586 0 0 0 -1.31526,-0.352829 39.015611,39.015586 0 0 0 -1.326688,-0.30632 39.015611,39.015586 0 0 0 -1.336596,-0.259853 39.015611,39.015586 0 0 0 -1.345725,-0.213362 39.015611,39.015586 0 0 0 -1.351062,-0.165365 39.015611,39.015586 0 0 0 -0.527304,-0.04645 23.409357,23.409357 0 0 1 -1.124741,1.683305 23.409357,23.409357 0 0 1 -1.178107,1.343439 39.015611,39.015586 0 0 1 3.497705,-0.553979 39.015611,39.015586 0 0 1 4.078347,-0.214141 39.015611,39.015586 0 0 1 4.07833,0.214141 39.015611,39.015586 0 0 1 1.978212,0.313177 z" />
    <path
       id="path4111"
       style="opacity:1;fill:#f9f9f9;stroke:#000000;stroke-width:0.461887;stroke-opacity:1"
       d="m 105.17203,118.60513 a 39.015611,39.015586 0 0 1 0.0373,0.0975 39.015611,39.015586 0 0 1 0.49075,1.83115 39.015611,39.015586 0 0 0 0.21641,-1.36708 39.015611,39.015586 0 0 0 0.0618,-1.17122 62.424968,62.424955 0 0 1 -0.80622,0.60962 z" />
    <path
       id="path4109"
       style="opacity:1;fill:#669900;stroke:#000000;stroke-width:0.461887;stroke-opacity:1"
       d="m 105.17203,118.60513 a 62.424968,62.424955 0 0 0 0.80623,-0.60961 39.015611,39.015586 0 0 0 0.15238,-2.90713 39.015611,39.015586 0 0 0 -0.0236,-1.36174 39.015611,39.015586 0 0 0 -0.0717,-1.35945 39.015611,39.015586 0 0 0 -0.11884,-1.35715 39.015611,39.015586 0 0 0 -0.16535,-1.35108 39.015611,39.015586 0 0 0 -0.21337,-1.34572 39.015611,39.015586 0 0 0 -0.25984,-1.3366 39.015611,39.015586 0 0 0 -0.30635,-1.32667 39.015611,39.015586 0 0 0 -0.35283,-1.31526 39.015611,39.015586 0 0 0 -0.39776,-1.3023 39.015611,39.015586 0 0 0 -0.43206,-1.25429 39.015611,39.015586 0 0 1 -0.57688,0.82452 39.015611,39.015586 0 0 1 -0.81991,1.0874 39.015611,39.015586 0 0 1 -0.85729,1.05846 39.015611,39.015586 0 0 1 -0.89307,1.02719 39.015611,39.015586 0 0 1 -0.928925,0.99673 39.015611,39.015586 0 0 1 -0.496825,0.49684 39.015611,39.015586 0 0 1 0.451097,0.55705 39.015611,39.015586 0 0 1 2.224353,3.42452 39.015611,39.015586 0 0 1 1.85399,3.63866 39.015611,39.015586 0 0 1 1.42652,3.71563 z" />
    <path
       style="opacity:1;fill:#99cc33;stroke:#000000;stroke-width:0.439432;stroke-miterlimit:4;stroke-dasharray:none"
       d="m 40.713631,84.290422 c -2.975134,-1.467392 -5.428787,-3.898634 -6.964058,-6.900518 -0.370023,-0.723516 -0.623981,-1.413277 -0.62311,-1.692565 0.0046,-1.54117 1.037533,-6.033628 2.036298,-8.857173 1.453209,-4.108221 4.048883,-9.224777 5.24048,-10.089013 0.246244,-0.178593 1.104348,-0.322628 1.137718,-0.291513 0.03362,0.03111 -0.0553,0.435611 -0.197034,0.898887 -0.661508,2.162746 -0.757992,5.672173 -0.221293,8.049855 1.431796,6.343384 6.88555,11.292616 13.371897,12.134956 l 1.024112,0.13301 -1.834511,0.666818 c -3.946545,1.434538 -7.15959,3.176268 -10.227005,5.543852 -0.712811,0.550189 -1.347952,1.001049 -1.411419,1.001904 -0.06357,7.81e-4 -0.662953,-0.26845 -1.33207,-0.598483 z"
       id="path13693"
       sodipodi:nodetypes="sscssccsscsssss" />
    <path
       style="opacity:1;fill:#99cc33;stroke:#000000;stroke-width:0.308193;stroke-miterlimit:4;stroke-dasharray:none"
       d="m 40.536532,56.542673 c 0,-0.01474 0.582969,-0.777102 0.836573,-1.09398 0.227973,-0.284835 0.513766,-0.631544 0.517628,-0.62796 0.0046,0.0015 -0.02183,0.06193 -0.05337,0.133011 -0.164388,0.370229 -0.242599,0.758966 -0.233356,1.159394 l 0.0046,0.193005 -0.140237,0.01184 c -0.234713,0.02035 -0.679765,0.124745 -0.866259,0.203015 -0.03599,0.01495 -0.06531,0.02463 -0.06548,0.02124 z"
       id="path16031" />
    <path
       id="path928"
       style="opacity:1;fill:#ffffff;stroke:#000000;stroke-width:0.461887;stroke-opacity:1"
       d="m 81.611807,187.54803 a 2.9279529,2.9279485 0 0 0 -0.905275,0.14319 2.9279529,2.9279485 0 0 0 -0.816137,0.41529 2.9279529,2.9279485 0 0 0 -0.647733,0.64774 2.9279529,2.9279485 0 0 0 -0.415324,0.81688 2.9279529,2.9279485 0 0 0 -0.144059,0.90453 2.9279529,2.9279485 0 0 0 0.144059,0.90452 2.9279529,2.9279485 0 0 0 0.415324,0.81612 2.9279529,2.9279485 0 0 0 0.647733,0.64772 2.9279529,2.9279485 0 0 0 0.816137,0.41606 2.9279529,2.9279485 0 0 0 0.905275,0.14333 2.9279529,2.9279485 0 0 0 0.904493,-0.14333 2.9279529,2.9279485 0 0 0 0.816134,-0.41606 2.9279529,2.9279485 0 0 0 0.647736,-0.64772 2.9279529,2.9279485 0 0 0 0.416059,-0.81612 2.9279529,2.9279485 0 0 0 0.143332,-0.90452 2.9279529,2.9279485 0 0 0 -0.143332,-0.90453 2.9279529,2.9279485 0 0 0 -0.416059,-0.81688 2.9279529,2.9279485 0 0 0 -0.647736,-0.64774 2.9279529,2.9279485 0 0 0 -0.816134,-0.41529 2.9279529,2.9279485 0 0 0 -0.904493,-0.14319 z"
       inkscape:export-filename="C:\Users\Ryzen\Desktop\Designs\Projects\ExpenseSnake\icon.png"
       inkscape:export-xdpi="96"
       inkscape:export-ydpi="96" />
    <path
       id="path930"
       style="opacity:1;fill:#99cc33;stroke:#000000;stroke-width:0.461887;stroke-opacity:1"
       d="m 97.457279,244.69674 a 39.015611,39.015586 0 0 1 -1.887493,2.32949 39.015611,39.015586 0 0 1 -2.888089,2.88807 39.015611,39.015586 0 0 1 -3.066381,2.48345 39.015611,39.015586 0 0 1 1.420426,0.9228 39.015611,39.015586 0 0 1 3.173807,2.56955 39.015611,39.015586 0 0 1 2.888089,2.88806 39.015611,39.015586 0 0 1 2.118432,2.61679 39.015611,39.015586 0 0 0 0.496825,-0.49684 39.015611,39.015586 0 0 0 0.928925,-0.99673 39.015611,39.015586 0 0 0 0.89307,-1.02719 39.015611,39.015586 0 0 0 0.85729,-1.05846 39.015611,39.015586 0 0 0 0.81991,-1.0874 39.015611,39.015586 0 0 0 0.57688,-0.82452 39.015611,39.015586 0 0 0 -0.0118,-0.0335 39.015611,39.015586 0 0 0 -0.4877,-1.27182 39.015611,39.015586 0 0 0 -0.53268,-1.25353 39.015611,39.015586 0 0 0 -0.57532,-1.23372 39.015611,39.015586 0 0 0 -0.61801,-1.21391 39.015611,39.015586 0 0 0 -0.66065,-1.19104 39.015611,39.015586 0 0 0 -0.70107,-1.16741 39.015611,39.015586 0 0 0 -0.74145,-1.14228 39.015611,39.015586 0 0 0 -0.781056,-1.11483 39.015611,39.015586 0 0 0 -0.819953,-1.08818 39.015611,39.015586 0 0 0 -0.402374,-0.49683 z"
       inkscape:export-filename="C:\Users\Ryzen\Desktop\Designs\Projects\ExpenseSnake\icon.png"
       inkscape:export-xdpi="96"
       inkscape:export-ydpi="96" />
    <path
       id="path932"
       style="opacity:1;fill:#669900;stroke:#000000;stroke-width:0.461887;stroke-opacity:1"
       d="m 68.149117,245.87101 a 39.015611,39.015586 0 0 1 4.032619,0.21184 39.015611,39.015586 0 0 1 4.033399,0.63858 39.015611,39.015586 0 0 1 3.94423,1.05692 39.015611,39.015586 0 0 1 3.813151,1.46384 39.015611,39.015586 0 0 1 3.638677,1.85401 39.015611,39.015586 0 0 1 2.004123,1.30155 39.015611,39.015586 0 0 0 3.066381,-2.48345 39.015611,39.015586 0 0 0 2.888089,-2.88807 39.015611,39.015586 0 0 0 1.887493,-2.32949 39.015611,39.015586 0 0 0 -0.454916,-0.56162 39.015611,39.015586 0 0 0 -0.893065,-1.02721 39.015611,39.015586 0 0 0 -0.928926,-0.99596 39.015611,39.015586 0 0 0 -0.96317,-0.9632 39.015611,39.015586 0 0 0 -0.995993,-0.92891 39.015611,39.015586 0 0 0 -1.027208,-0.89308 39.015611,39.015586 0 0 0 -1.058458,-0.85728 39.015611,39.015586 0 0 0 -1.08814,-0.81917 39.015611,39.015586 0 0 0 -0.70489,-0.49457 39.015611,39.015586 0 0 1 -0.759747,0.61496 39.015611,39.015586 0 0 1 -1.088154,0.81993 39.015611,39.015586 0 0 1 -1.115615,0.78109 39.015611,39.015586 0 0 1 -1.141505,0.74144 39.015611,39.015586 0 0 1 -1.167429,0.70183 39.015611,39.015586 0 0 1 -1.191024,0.6599 39.015611,39.015586 0 0 1 -1.213897,0.618 39.015611,39.015586 0 0 1 -1.233714,0.57609 39.015611,39.015586 0 0 1 -1.253531,0.53191 39.015611,39.015586 0 0 1 -1.271833,0.48768 39.015611,39.015586 0 0 1 -1.287832,0.4435 39.015611,39.015586 0 0 1 -1.302298,0.39854 39.015611,39.015586 0 0 1 -1.315258,0.35206 39.015611,39.015586 0 0 1 -1.326645,0.30632 39.015611,39.015586 0 0 1 -1.336596,0.25986 39.015611,39.015586 0 0 1 -1.345725,0.21337 39.015611,39.015586 0 0 1 -1.351076,0.16611 39.015611,39.015586 0 0 1 -0.491517,0.0426 z"
       inkscape:export-filename="C:\Users\Ryzen\Desktop\Designs\Projects\ExpenseSnake\icon.png"
       inkscape:export-xdpi="96"
       inkscape:export-ydpi="96" />
    <path
       id="path934"
       style="opacity:1;fill:#ff0000;stroke:#000000;stroke-width:0.461887;stroke-opacity:1"
       d="m 64.930336,246.03561 a 39.015611,39.015586 0 0 0 0.993691,-0.0174 39.015611,39.015586 0 0 0 1.359454,-0.0717 39.015611,39.015586 0 0 0 0.865636,-0.0755 39.015611,39.015586 0 0 0 -0.04573,-0.003 39.015611,39.015586 0 0 0 -3.173055,0.16688 z"
       inkscape:export-filename="C:\Users\Ryzen\Desktop\Designs\Projects\ExpenseSnake\icon.png"
       inkscape:export-xdpi="96"
       inkscape:export-ydpi="96" />
    <path
       id="path936"
       style="opacity:1;fill:#ffcc00;stroke:#000000;stroke-width:0.461887;stroke-opacity:1"
       d="m 33.121981,183.94062 a 62.424968,62.424955 0 0 1 0.09069,-0.0648 62.424968,62.424955 0 0 1 4.43194,-2.64042 62.424968,62.424955 0 0 1 4.635362,-2.26626 62.424968,62.424955 0 0 1 4.806846,-1.87533 62.424968,62.424955 0 0 1 4.944792,-1.47223 62.424968,62.424955 0 0 1 5.049168,-1.05921 62.424968,62.424955 0 0 1 5.120019,-0.63781 62.424968,62.424955 0 0 1 5.155088,-0.21337 62.424968,62.424955 0 0 1 5.1551,0.21337 62.424968,62.424955 0 0 1 5.120009,0.63781 62.424968,62.424955 0 0 1 5.049164,1.05921 62.424968,62.424955 0 0 1 4.944794,1.47223 62.424968,62.424955 0 0 1 3.45273,1.34726 39.015611,39.015586 0 0 0 -0.409188,-0.4092 39.015611,39.015586 0 0 0 -3.173852,-2.57031 39.015611,39.015586 0 0 0 -3.424549,-2.22359 39.015611,39.015586 0 0 0 -3.638635,-1.85401 39.015611,39.015586 0 0 0 -3.813194,-1.46384 39.015611,39.015586 0 0 0 -3.944201,-1.05693 39.015611,39.015586 0 0 0 -4.033399,-0.63857 39.015611,39.015586 0 0 0 -4.078376,-0.21413 39.015611,39.015586 0 0 0 -4.07833,0.21413 39.015611,39.015586 0 0 0 -4.033397,0.63857 39.015611,39.015586 0 0 0 -3.944984,1.05693 39.015611,39.015586 0 0 0 -3.812413,1.46384 39.015611,39.015586 0 0 0 -3.638663,1.85401 39.015611,39.015586 0 0 0 -3.425299,2.22359 39.015611,39.015586 0 0 0 -3.173809,2.57031 39.015611,39.015586 0 0 0 -2.887306,2.88806 39.015611,39.015586 0 0 0 -2.446076,3.02067 z"
       inkscape:export-filename="C:\Users\Ryzen\Desktop\Designs\Projects\ExpenseSnake\icon.png"
       inkscape:export-xdpi="96"
       inkscape:export-ydpi="96" />
    <path
       id="path938"
       style="opacity:1;fill:#99cc33;stroke:#000000;stroke-width:0.461887;stroke-opacity:1"
       d="m 29.957258,207.59229 a 23.409357,23.409357 0 0 1 0.739188,-1.49814 23.409357,23.409357 0 0 1 1.700811,-2.54592 23.409357,23.409357 0 0 1 2.019367,-2.30208 23.409357,23.409357 0 0 1 2.30208,-2.01935 23.409357,23.409357 0 0 1 2.545922,-1.70084 23.409357,23.409357 0 0 1 2.746348,-1.35488 23.409357,23.409357 0 0 1 2.899486,-0.98377 23.409357,23.409357 0 0 1 3.003153,-0.59742 23.409357,23.409357 0 0 1 3.05569,-0.20042 23.409357,23.409357 0 0 1 1.050066,0.0236 23.409357,23.409357 0 0 1 1.048549,0.0709 23.409357,23.409357 0 0 1 1.043975,0.1174 23.409357,23.409357 0 0 1 1.037121,0.16459 23.409357,23.409357 0 0 1 1.029495,0.21032 23.409357,23.409357 0 0 1 1.018818,0.25681 23.409357,23.409357 0 0 1 1.005859,0.30251 23.409357,23.409357 0 0 1 0.991392,0.34673 23.409357,23.409357 0 0 1 0.975392,0.39091 23.409357,23.409357 0 0 1 0.361206,0.16383 39.015611,39.015586 0 0 1 3.004669,-0.80469 39.015611,39.015586 0 0 1 4.033385,-0.63933 39.015611,39.015586 0 0 1 4.078345,-0.21338 39.015611,39.015586 0 0 1 1.361723,0.0236 39.015611,39.015586 0 0 1 1.359454,0.0717 39.015611,39.015586 0 0 1 1.357153,0.11812 39.015611,39.015586 0 0 1 1.351859,0.16612 39.015611,39.015586 0 0 1 1.344944,0.21336 39.015611,39.015586 0 0 1 1.336594,0.25985 39.015611,39.015586 0 0 1 1.326688,0.30634 39.015611,39.015586 0 0 1 1.316043,0.35206 39.015611,39.015586 0 0 1 1.302253,0.39852 39.015611,39.015586 0 0 1 1.287094,0.44351 39.015611,39.015586 0 0 1 1.27179,0.48769 39.015611,39.015586 0 0 1 1.253529,0.53189 39.015611,39.015586 0 0 1 1.234497,0.57609 39.015611,39.015586 0 0 1 1.213142,0.61801 39.015611,39.015586 0 0 1 1.191039,0.66068 39.015611,39.015586 0 0 1 1.167414,0.70105 39.015611,39.015586 0 0 1 1.14226,0.74145 39.015611,39.015586 0 0 1 1.115612,0.78107 39.015611,39.015586 0 0 1 1.087403,0.81994 39.015611,39.015586 0 0 1 1.058458,0.85727 39.015611,39.015586 0 0 1 1.027194,0.8931 39.015611,39.015586 0 0 1 0.995965,0.92891 39.015611,39.015586 0 0 1 0.963212,0.9632 39.015611,39.015586 0 0 1 0.928925,0.99596 39.015611,39.015586 0 0 1 0.89307,1.0272 39.015611,39.015586 0 0 1 0.85729,1.05845 39.015611,39.015586 0 0 1 0.81991,1.08741 39.015611,39.015586 0 0 1 0.15394,0.21946 39.015611,39.015586 0 0 0 0.11665,-1.33354 39.015611,39.015586 0 0 0 0.0671,-1.268 39.015611,39.015586 0 0 0 -0.31168,-0.90378 39.015611,39.015586 0 0 0 -0.48769,-1.27182 39.015611,39.015586 0 0 0 -0.53267,-1.25351 39.015611,39.015586 0 0 0 -0.57534,-1.23448 39.015611,39.015586 0 0 0 -0.61801,-1.21315 39.015611,39.015586 0 0 0 -0.66065,-1.19104 39.015611,39.015586 0 0 0 -0.701053,-1.16743 39.015611,39.015586 0 0 0 -0.741462,-1.14225 39.015611,39.015586 0 0 0 -0.781083,-1.11562 39.015611,39.015586 0 0 0 -0.819926,-1.0874 39.015611,39.015586 0 0 0 -0.85729,-1.05846 39.015611,39.015586 0 0 0 -0.89307,-1.0272 39.015611,39.015586 0 0 0 -0.928911,-0.99673 39.015611,39.015586 0 0 0 -0.963229,-0.96242 39.015611,39.015586 0 0 0 -0.995947,-0.92892 39.015611,39.015586 0 0 0 -1.027196,-0.89309 39.015611,39.015586 0 0 0 -1.058456,-0.85728 39.015611,39.015586 0 0 0 -1.087402,-0.81994 39.015611,39.015586 0 0 0 -1.115615,-0.78107 39.015611,39.015586 0 0 0 -1.142257,-0.74144 39.015611,39.015586 0 0 0 -1.167431,-0.70106 39.015611,39.015586 0 0 0 -1.191022,-0.66068 39.015611,39.015586 0 0 0 -1.213159,-0.61801 39.015611,39.015586 0 0 0 -1.234495,-0.57608 39.015611,39.015586 0 0 0 -1.253534,-0.53189 39.015611,39.015586 0 0 0 -1.271787,-0.4877 39.015611,39.015586 0 0 0 -1.28708,-0.4435 39.015611,39.015586 0 0 0 -1.302269,-0.39853 39.015611,39.015586 0 0 0 -1.316024,-0.35206 39.015611,39.015586 0 0 0 -1.326689,-0.30634 39.015611,39.015586 0 0 0 -1.336596,-0.25985 39.015611,39.015586 0 0 0 -1.344944,-0.21336 39.015611,39.015586 0 0 0 -1.351859,-0.16611 39.015611,39.015586 0 0 0 -1.357153,-0.11812 39.015611,39.015586 0 0 0 -1.359468,-0.0717 39.015611,39.015586 0 0 0 -1.361709,-0.0236 39.015611,39.015586 0 0 0 -4.078345,0.21337 39.015611,39.015586 0 0 0 -4.033399,0.63933 39.015611,39.015586 0 0 0 -3.944982,1.05692 39.015611,39.015586 0 0 0 -3.812399,1.46309 39.015611,39.015586 0 0 0 -3.638678,1.85401 39.015611,39.015586 0 0 0 -3.4253,2.22434 39.015611,39.015586 0 0 0 -3.173838,2.57031 39.015611,39.015586 0 0 0 -2.887306,2.88807 39.015611,39.015586 0 0 0 -2.570267,3.17306 39.015611,39.015586 0 0 0 -2.224369,3.4253 39.015611,39.015586 0 0 0 -1.854019,3.63866 39.015611,39.015586 0 0 0 -0.975394,2.54135 z m 51.654549,-20.04426 a 2.9279529,2.9279485 0 0 1 0.904493,0.14319 2.9279529,2.9279485 0 0 1 0.816134,0.41529 2.9279529,2.9279485 0 0 1 0.647736,0.64774 2.9279529,2.9279485 0 0 1 0.416059,0.81688 2.9279529,2.9279485 0 0 1 0.143332,0.90453 2.9279529,2.9279485 0 0 1 -0.143332,0.90452 2.9279529,2.9279485 0 0 1 -0.416059,0.81612 2.9279529,2.9279485 0 0 1 -0.647736,0.64772 2.9279529,2.9279485 0 0 1 -0.816134,0.41606 2.9279529,2.9279485 0 0 1 -0.904493,0.14333 2.9279529,2.9279485 0 0 1 -0.905275,-0.14333 2.9279529,2.9279485 0 0 1 -0.816137,-0.41606 2.9279529,2.9279485 0 0 1 -0.647733,-0.64772 2.9279529,2.9279485 0 0 1 -0.415324,-0.81612 2.9279529,2.9279485 0 0 1 -0.144059,-0.90452 2.9279529,2.9279485 0 0 1 0.144059,-0.90453 2.9279529,2.9279485 0 0 1 0.415324,-0.81688 2.9279529,2.9279485 0 0 1 0.647733,-0.64774 2.9279529,2.9279485 0 0 1 0.816137,-0.41529 2.9279529,2.9279485 0 0 1 0.905275,-0.14319 z"
       inkscape:export-filename="C:\Users\Ryzen\Desktop\Designs\Projects\ExpenseSnake\icon.png"
       inkscape:export-xdpi="96"
       inkscape:export-ydpi="96" />
    <path
       id="path940"
       style="opacity:1;fill:#669900;stroke:#000000;stroke-width:0.461887;stroke-opacity:1"
       d="m 27.65062,219.18418 a 23.409357,23.409357 0 0 0 0.032,0.48923 39.015611,39.015586 0 0 0 1.236767,3.22184 39.015611,39.015586 0 0 0 1.853975,3.63866 39.015611,39.015586 0 0 0 2.071969,3.18982 39.015611,39.015586 0 0 1 0,-0.007 39.015611,39.015586 0 0 1 0.639299,-4.03338 39.015611,39.015586 0 0 1 1.056938,-3.945 39.015611,39.015586 0 0 1 1.463089,-3.8124 39.015611,39.015586 0 0 1 1.85402,-3.63866 39.015611,39.015586 0 0 1 2.224354,-3.4253 39.015611,39.015586 0 0 1 2.570266,-3.17306 39.015611,39.015586 0 0 1 2.887307,-2.88807 39.015611,39.015586 0 0 1 3.173852,-2.57031 39.015611,39.015586 0 0 1 3.425286,-2.22358 39.015611,39.015586 0 0 1 3.638678,-1.85477 39.015611,39.015586 0 0 1 3.812416,-1.46309 39.015611,39.015586 0 0 1 0.940308,-0.25223 23.409357,23.409357 0 0 0 -0.361204,-0.16383 23.409357,23.409357 0 0 0 -0.975392,-0.39091 23.409357,23.409357 0 0 0 -0.991392,-0.34673 23.409357,23.409357 0 0 0 -1.005857,-0.30251 23.409357,23.409357 0 0 0 -1.01882,-0.25681 23.409357,23.409357 0 0 0 -1.029495,-0.21032 23.409357,23.409357 0 0 0 -1.037119,-0.1646 23.409357,23.409357 0 0 0 -1.043977,-0.11739 23.409357,23.409357 0 0 0 -1.048547,-0.0709 23.409357,23.409357 0 0 0 -1.050066,-0.0236 23.409357,23.409357 0 0 0 -3.055692,0.20042 23.409357,23.409357 0 0 0 -3.003151,0.59742 23.409357,23.409357 0 0 0 -2.899488,0.98377 23.409357,23.409357 0 0 0 -2.746348,1.35488 23.409357,23.409357 0 0 0 -2.54592,1.70084 23.409357,23.409357 0 0 0 -2.30208,2.01935 23.409357,23.409357 0 0 0 -2.019369,2.30208 23.409357,23.409357 0 0 0 -1.700809,2.54592 23.409357,23.409357 0 0 0 -0.739192,1.49814 39.015611,39.015586 0 0 0 -0.48768,1.27105 39.015611,39.015586 0 0 0 -1.056938,3.945 39.015611,39.015586 0 0 0 -0.639315,4.03338 39.015611,39.015586 0 0 0 -0.122689,2.34246 z"
       inkscape:export-filename="C:\Users\Ryzen\Desktop\Designs\Projects\ExpenseSnake\icon.png"
       inkscape:export-xdpi="96"
       inkscape:export-ydpi="96" />
    <path
       id="path942"
       style="opacity:1;fill:#ff0000;stroke:#000000;stroke-width:0.461887;stroke-opacity:1"
       d="m 27.65062,219.18418 a 39.015611,39.015586 0 0 1 0.122689,-2.34245 39.015611,39.015586 0 0 1 0.639315,-4.03339 39.015611,39.015586 0 0 1 1.056936,-3.94499 39.015611,39.015586 0 0 1 0.487681,-1.27106 23.409357,23.409357 0 0 0 -0.615691,1.2482 23.409357,23.409357 0 0 0 -0.983783,2.89949 23.409357,23.409357 0 0 0 -0.597406,3.00313 23.409357,23.409357 0 0 0 -0.20044,3.05572 23.409357,23.409357 0 0 0 0.09069,1.38535 z"
       inkscape:export-filename="C:\Users\Ryzen\Desktop\Designs\Projects\ExpenseSnake\icon.png"
       inkscape:export-xdpi="96"
       inkscape:export-ydpi="96" />
    <path
       id="path944"
       style="opacity:1;fill:#669900;stroke:#000000;stroke-width:0.461887;stroke-opacity:1"
       d="m 51.664256,241.16246 a 23.409357,23.409357 0 0 1 -0.694953,0.0457 23.409357,23.409357 0 0 1 -3.05569,-0.20042 23.409357,23.409357 0 0 1 -3.003153,-0.59742 23.409357,23.409357 0 0 1 -1.003601,-0.34063 39.015611,39.015586 0 0 0 1.147613,0.74526 39.015611,39.015586 0 0 0 3.638662,1.854 39.015611,39.015586 0 0 0 0.807007,0.30938 39.015611,39.015586 0 0 1 0.332212,-0.33224 39.015611,39.015586 0 0 1 1.831903,-1.48366 z"
       inkscape:export-filename="C:\Users\Ryzen\Desktop\Designs\Projects\ExpenseSnake\icon.png"
       inkscape:export-xdpi="96"
       inkscape:export-ydpi="96" />
    <path
       id="path946"
       style="opacity:1;fill:#669900;stroke:#000000;stroke-width:0.461887;stroke-opacity:1"
       d="m 68.363244,233.39287 a 23.409357,23.409357 0 0 0 1.178107,-1.34344 23.409357,23.409357 0 0 0 1.124741,-1.6833 39.015611,39.015586 0 0 0 -0.829863,-0.0724 39.015611,39.015586 0 0 0 -1.359454,-0.0717 39.015611,39.015586 0 0 0 -1.361724,-0.0236 39.015611,39.015586 0 0 0 -4.07833,0.21412 39.015611,39.015586 0 0 0 -4.033399,0.63858 39.015611,39.015586 0 0 0 -3.944982,1.05692 39.015611,39.015586 0 0 0 -3.812415,1.46384 39.015611,39.015586 0 0 0 -3.638678,1.85401 39.015611,39.015586 0 0 0 -3.425286,2.22435 39.015611,39.015586 0 0 0 -1.780836,1.44174 39.015611,39.015586 0 0 0 1.505734,0.97768 23.409357,23.409357 0 0 0 1.003601,0.34063 23.409357,23.409357 0 0 0 3.003153,0.59742 23.409357,23.409357 0 0 0 3.05569,0.20042 23.409357,23.409357 0 0 0 0.694953,-0.0457 39.015611,39.015586 0 0 1 1.341935,-1.08664 39.015611,39.015586 0 0 1 3.425301,-2.22358 39.015611,39.015586 0 0 1 3.638678,-1.85401 39.015611,39.015586 0 0 1 3.812399,-1.46384 39.015611,39.015586 0 0 1 3.944981,-1.05694 39.015611,39.015586 0 0 1 0.535694,-0.0847 z"
       inkscape:export-filename="C:\Users\Ryzen\Desktop\Designs\Projects\ExpenseSnake\icon.png"
       inkscape:export-xdpi="96"
       inkscape:export-ydpi="96" />
    <path
       id="path948"
       style="opacity:1;fill:#99cc33;stroke:#000000;stroke-width:0.461887;stroke-opacity:1"
       d="m 75.939296,232.62475 a 39.015611,39.015584 0 0 0 -4.078347,0.21414 39.015611,39.015584 0 0 0 -3.497705,0.55398 39.015611,39.015584 0 0 0 -0.535694,0.0846 39.015611,39.015584 0 0 0 -3.944981,1.05694 39.015611,39.015584 0 0 0 -3.812399,1.46384 39.015611,39.015584 0 0 0 -3.638678,1.85401 39.015611,39.015584 0 0 0 -3.425301,2.22358 39.015611,39.015584 0 0 0 -1.341935,1.08664 39.015611,39.015584 0 0 0 -1.831903,1.48366 39.015611,39.015584 0 0 0 -0.332212,0.33224 39.015611,39.015584 0 0 0 3.005406,1.1537 39.015611,39.015584 0 0 0 3.944984,1.05693 39.015611,39.015584 0 0 0 4.033397,0.63934 39.015611,39.015584 0 0 0 4.07833,0.21336 39.015611,39.015584 0 0 0 0.368078,-0.006 39.015611,39.015584 0 0 1 3.173055,-0.16688 39.015611,39.015584 0 0 1 0.04573,0.003 39.015611,39.015584 0 0 0 0.491515,-0.0426 39.015611,39.015584 0 0 0 1.351079,-0.16611 39.015611,39.015584 0 0 0 1.345722,-0.21337 39.015611,39.015584 0 0 0 1.336598,-0.25986 39.015611,39.015584 0 0 0 1.326643,-0.30632 39.015611,39.015584 0 0 0 1.31526,-0.35206 39.015611,39.015584 0 0 0 1.302298,-0.39854 39.015611,39.015584 0 0 0 1.287832,-0.44351 39.015611,39.015584 0 0 0 1.271831,-0.48768 39.015611,39.015584 0 0 0 1.253533,-0.5319 39.015611,39.015584 0 0 0 1.233714,-0.57609 39.015611,39.015584 0 0 0 1.213895,-0.618 39.015611,39.015584 0 0 0 1.191021,-0.6599 39.015611,39.015584 0 0 0 1.167432,-0.70183 39.015611,39.015584 0 0 0 1.141508,-0.74144 39.015611,39.015584 0 0 0 1.115612,-0.78109 39.015611,39.015584 0 0 0 1.088154,-0.81994 39.015611,39.015584 0 0 0 0.759747,-0.61495 39.015611,39.015584 0 0 0 -0.409985,-0.28728 39.015611,39.015584 0 0 0 -1.142258,-0.74145 39.015611,39.015584 0 0 0 -1.167416,-0.70106 39.015611,39.015584 0 0 0 -1.191039,-0.66066 39.015611,39.015584 0 0 0 -1.21388,-0.61801 39.015611,39.015584 0 0 0 -1.233757,-0.57533 39.015611,39.015584 0 0 0 -0.98834,-0.41988 39.015611,39.015584 0 0 0 -1.978212,-0.31318 39.015611,39.015584 0 0 0 -4.078332,-0.21414 z"
       inkscape:export-filename="C:\Users\Ryzen\Desktop\Designs\Projects\ExpenseSnake\icon.png"
       inkscape:export-xdpi="96"
       inkscape:export-ydpi="96" />
    <path
       id="path950"
       style="opacity:1;fill:#669900;stroke:#000000;stroke-width:0.461887;stroke-opacity:1"
       d="m 81.995838,233.15207 a 39.015611,39.015586 0 0 0 -0.26515,-0.1128 39.015611,39.015586 0 0 0 -1.271831,-0.4877 39.015611,39.015586 0 0 0 -1.287832,-0.44349 39.015611,39.015586 0 0 0 -1.302298,-0.39777 39.015611,39.015586 0 0 0 -1.31526,-0.35283 39.015611,39.015586 0 0 0 -1.326688,-0.30632 39.015611,39.015586 0 0 0 -1.336596,-0.25985 39.015611,39.015586 0 0 0 -1.345725,-0.21337 39.015611,39.015586 0 0 0 -1.351062,-0.16536 39.015611,39.015586 0 0 0 -0.527304,-0.0464 23.409357,23.409357 0 0 1 -1.124741,1.6833 23.409357,23.409357 0 0 1 -1.178107,1.34344 39.015611,39.015586 0 0 1 3.497705,-0.55398 39.015611,39.015586 0 0 1 4.078347,-0.21414 39.015611,39.015586 0 0 1 4.07833,0.21414 39.015611,39.015586 0 0 1 1.978212,0.31318 z"
       inkscape:export-filename="C:\Users\Ryzen\Desktop\Designs\Projects\ExpenseSnake\icon.png"
       inkscape:export-xdpi="96"
       inkscape:export-ydpi="96" />
    <path
       id="path952"
       style="opacity:1;fill:#f9f9f9;stroke:#000000;stroke-width:0.461887;stroke-opacity:1"
       d="m 105.17203,272.73081 a 39.015611,39.015586 0 0 1 0.0373,0.0975 39.015611,39.015586 0 0 1 0.49075,1.83115 39.015611,39.015586 0 0 0 0.21641,-1.36708 39.015611,39.015586 0 0 0 0.0618,-1.17122 62.424968,62.424955 0 0 1 -0.80622,0.60962 z"
       inkscape:export-filename="C:\Users\Ryzen\Desktop\Designs\Projects\ExpenseSnake\icon.png"
       inkscape:export-xdpi="96"
       inkscape:export-ydpi="96" />
    <path
       id="path954"
       style="opacity:1;fill:#669900;stroke:#000000;stroke-width:0.461887;stroke-opacity:1"
       d="m 105.17203,272.73081 a 62.424968,62.424955 0 0 0 0.80623,-0.60961 39.015611,39.015586 0 0 0 0.15238,-2.90713 39.015611,39.015586 0 0 0 -0.0236,-1.36174 39.015611,39.015586 0 0 0 -0.0717,-1.35945 39.015611,39.015586 0 0 0 -0.11884,-1.35715 39.015611,39.015586 0 0 0 -0.16535,-1.35108 39.015611,39.015586 0 0 0 -0.21337,-1.34572 39.015611,39.015586 0 0 0 -0.25984,-1.3366 39.015611,39.015586 0 0 0 -0.30635,-1.32667 39.015611,39.015586 0 0 0 -0.35283,-1.31526 39.015611,39.015586 0 0 0 -0.39776,-1.3023 39.015611,39.015586 0 0 0 -0.43206,-1.25429 39.015611,39.015586 0 0 1 -0.57688,0.82452 39.015611,39.015586 0 0 1 -0.81991,1.0874 39.015611,39.015586 0 0 1 -0.85729,1.05846 39.015611,39.015586 0 0 1 -0.89307,1.02719 39.015611,39.015586 0 0 1 -0.928925,0.99673 39.015611,39.015586 0 0 1 -0.496825,0.49684 39.015611,39.015586 0 0 1 0.451097,0.55705 39.015611,39.015586 0 0 1 2.224353,3.42452 39.015611,39.015586 0 0 1 1.85399,3.63866 39.015611,39.015586 0 0 1 1.42652,3.71563 z"
       inkscape:export-filename="C:\Users\Ryzen\Desktop\Designs\Projects\ExpenseSnake\icon.png"
       inkscape:export-xdpi="96"
       inkscape:export-ydpi="96" />
    <path
       style="opacity:1;fill:#99cc33;stroke:#000000;stroke-width:0.439432;stroke-miterlimit:4;stroke-dasharray:none"
       d="m 40.713631,238.4161 c -2.975134,-1.46739 -5.428787,-3.89863 -6.964058,-6.90052 -0.370023,-0.72351 -0.623981,-1.41328 -0.62311,-1.69256 0.0046,-1.54117 1.037533,-6.03363 2.036298,-8.85718 1.453209,-4.10822 4.048883,-9.22477 5.24048,-10.08901 0.246244,-0.17859 1.104348,-0.32263 1.137718,-0.29151 0.03362,0.0311 -0.0553,0.43561 -0.197034,0.89888 -0.661508,2.16275 -0.757992,5.67218 -0.221293,8.04986 1.431796,6.34338 6.88555,11.29262 13.371897,12.13496 l 1.024112,0.13301 -1.834511,0.66681 c -3.946545,1.43454 -7.15959,3.17627 -10.227005,5.54386 -0.712811,0.55018 -1.347952,1.00104 -1.411419,1.0019 -0.06357,7.8e-4 -0.662953,-0.26845 -1.33207,-0.59848 z"
       id="path956"
       sodipodi:nodetypes="sscssccsscsssss"
       inkscape:export-filename="C:\Users\Ryzen\Desktop\Designs\Projects\ExpenseSnake\icon.png"
       inkscape:export-xdpi="96"
       inkscape:export-ydpi="96" />
    <path
       style="opacity:1;fill:#99cc33;stroke:#000000;stroke-width:0.308193;stroke-miterlimit:4;stroke-dasharray:none"
       d="m 40.536532,210.66835 c 0,-0.0147 0.582969,-0.7771 0.836573,-1.09398 0.227973,-0.28483 0.513766,-0.63154 0.517628,-0.62796 0.0046,0.002 -0.02183,0.0619 -0.05337,0.13301 -0.164388,0.37023 -0.242599,0.75897 -0.233356,1.1594 l 0.0046,0.193 -0.140237,0.0118 c -0.234713,0.0204 -0.679765,0.12475 -0.866259,0.20302 -0.03599,0.0149 -0.06531,0.0246 -0.06548,0.0212 z"
       id="path958"
       inkscape:export-filename="C:\Users\Ryzen\Desktop\Designs\Projects\ExpenseSnake\icon.png"
       inkscape:export-xdpi="96"
       inkscape:export-ydpi="96" />
    <path
       id="path962"
       style="opacity:1;fill:#ffffff;stroke:#000000;stroke-width:0.461887;stroke-opacity:1"
       d="m 81.611807,335.0208 a 2.9279529,2.9279485 0 0 0 -0.905275,0.14319 2.9279529,2.9279485 0 0 0 -0.816137,0.41529 2.9279529,2.9279485 0 0 0 -0.647733,0.64774 2.9279529,2.9279485 0 0 0 -0.415324,0.81688 2.9279529,2.9279485 0 0 0 -0.144059,0.90453 2.9279529,2.9279485 0 0 0 0.144059,0.90452 2.9279529,2.9279485 0 0 0 0.415324,0.81612 2.9279529,2.9279485 0 0 0 0.647733,0.64772 2.9279529,2.9279485 0 0 0 0.816137,0.41606 2.9279529,2.9279485 0 0 0 0.905275,0.14333 2.9279529,2.9279485 0 0 0 0.904493,-0.14333 2.9279529,2.9279485 0 0 0 0.816134,-0.41606 2.9279529,2.9279485 0 0 0 0.647736,-0.64772 2.9279529,2.9279485 0 0 0 0.416059,-0.81612 2.9279529,2.9279485 0 0 0 0.143332,-0.90452 2.9279529,2.9279485 0 0 0 -0.143332,-0.90453 2.9279529,2.9279485 0 0 0 -0.416059,-0.81688 2.9279529,2.9279485 0 0 0 -0.647736,-0.64774 2.9279529,2.9279485 0 0 0 -0.816134,-0.41529 2.9279529,2.9279485 0 0 0 -0.904493,-0.14319 z"
       inkscape:export-filename="C:\Users\Ryzen\Desktop\Designs\Projects\ExpenseSnake\icon-dark.png"
       inkscape:export-xdpi="96"
       inkscape:export-ydpi="96" />
    <path
       id="path964"
       style="opacity:1;fill:#99cc33;stroke:#000000;stroke-width:0.461887;stroke-opacity:1"
       d="m 97.457279,392.16951 a 39.015611,39.015586 0 0 1 -1.887493,2.32949 39.015611,39.015586 0 0 1 -2.888089,2.88807 39.015611,39.015586 0 0 1 -3.066381,2.48345 39.015611,39.015586 0 0 1 1.420426,0.9228 39.015611,39.015586 0 0 1 3.173807,2.56955 39.015611,39.015586 0 0 1 2.888089,2.88806 39.015611,39.015586 0 0 1 2.118432,2.61679 39.015611,39.015586 0 0 0 0.496825,-0.49684 39.015611,39.015586 0 0 0 0.928925,-0.99673 39.015611,39.015586 0 0 0 0.89307,-1.02719 39.015611,39.015586 0 0 0 0.85729,-1.05846 39.015611,39.015586 0 0 0 0.81991,-1.0874 39.015611,39.015586 0 0 0 0.57688,-0.82452 39.015611,39.015586 0 0 0 -0.0118,-0.0335 39.015611,39.015586 0 0 0 -0.4877,-1.27182 39.015611,39.015586 0 0 0 -0.53268,-1.25353 39.015611,39.015586 0 0 0 -0.57532,-1.23372 39.015611,39.015586 0 0 0 -0.61801,-1.21391 39.015611,39.015586 0 0 0 -0.66065,-1.19104 39.015611,39.015586 0 0 0 -0.70107,-1.16741 39.015611,39.015586 0 0 0 -0.74145,-1.14228 39.015611,39.015586 0 0 0 -0.781056,-1.11483 39.015611,39.015586 0 0 0 -0.819953,-1.08818 39.015611,39.015586 0 0 0 -0.402374,-0.49683 z"
       inkscape:export-filename="C:\Users\Ryzen\Desktop\Designs\Projects\ExpenseSnake\icon-dark.png"
       inkscape:export-xdpi="96"
       inkscape:export-ydpi="96" />
    <path
       id="path966"
       style="opacity:1;fill:#669900;stroke:#000000;stroke-width:0.461887;stroke-opacity:1"
       d="m 68.149117,393.34378 a 39.015611,39.015586 0 0 1 4.032619,0.21184 39.015611,39.015586 0 0 1 4.033399,0.63858 39.015611,39.015586 0 0 1 3.94423,1.05692 39.015611,39.015586 0 0 1 3.813151,1.46384 39.015611,39.015586 0 0 1 3.638677,1.85401 39.015611,39.015586 0 0 1 2.004123,1.30155 39.015611,39.015586 0 0 0 3.066381,-2.48345 39.015611,39.015586 0 0 0 2.888089,-2.88807 39.015611,39.015586 0 0 0 1.887493,-2.32949 39.015611,39.015586 0 0 0 -0.454916,-0.56162 39.015611,39.015586 0 0 0 -0.893065,-1.02721 39.015611,39.015586 0 0 0 -0.928926,-0.99596 39.015611,39.015586 0 0 0 -0.96317,-0.9632 39.015611,39.015586 0 0 0 -0.995993,-0.92891 39.015611,39.015586 0 0 0 -1.027208,-0.89308 39.015611,39.015586 0 0 0 -1.058458,-0.85728 39.015611,39.015586 0 0 0 -1.08814,-0.81917 39.015611,39.015586 0 0 0 -0.70489,-0.49457 39.015611,39.015586 0 0 1 -0.759747,0.61496 39.015611,39.015586 0 0 1 -1.088154,0.81993 39.015611,39.015586 0 0 1 -1.115615,0.78109 39.015611,39.015586 0 0 1 -1.141505,0.74144 39.015611,39.015586 0 0 1 -1.167429,0.70183 39.015611,39.015586 0 0 1 -1.191024,0.6599 39.015611,39.015586 0 0 1 -1.213897,0.618 39.015611,39.015586 0 0 1 -1.233714,0.57609 39.015611,39.015586 0 0 1 -1.253531,0.53191 39.015611,39.015586 0 0 1 -1.271833,0.48768 39.015611,39.015586 0 0 1 -1.287832,0.4435 39.015611,39.015586 0 0 1 -1.302298,0.39854 39.015611,39.015586 0 0 1 -1.315258,0.35206 39.015611,39.015586 0 0 1 -1.326645,0.30632 39.015611,39.015586 0 0 1 -1.336596,0.25986 39.015611,39.015586 0 0 1 -1.345725,0.21337 39.015611,39.015586 0 0 1 -1.351076,0.16611 39.015611,39.015586 0 0 1 -0.491517,0.0426 z"
       inkscape:export-filename="C:\Users\Ryzen\Desktop\Designs\Projects\ExpenseSnake\icon-dark.png"
       inkscape:export-xdpi="96"
       inkscape:export-ydpi="96" />
    <path
       id="path968"
       style="opacity:1;fill:#ff0000;stroke:#000000;stroke-width:0.461887;stroke-opacity:1"
       d="m 64.930336,393.50838 a 39.015611,39.015586 0 0 0 0.993691,-0.0174 39.015611,39.015586 0 0 0 1.359454,-0.0717 39.015611,39.015586 0 0 0 0.865636,-0.0755 39.015611,39.015586 0 0 0 -0.04573,-0.003 39.015611,39.015586 0 0 0 -3.173055,0.16688 z"
       inkscape:export-filename="C:\Users\Ryzen\Desktop\Designs\Projects\ExpenseSnake\icon-dark.png"
       inkscape:export-xdpi="96"
       inkscape:export-ydpi="96" />
    <path
       id="path970"
       style="opacity:1;fill:#ffcc00;stroke:#000000;stroke-width:0.461887;stroke-opacity:1"
       d="m 33.121981,331.41339 a 62.424968,62.424955 0 0 1 0.09069,-0.0648 62.424968,62.424955 0 0 1 4.43194,-2.64042 62.424968,62.424955 0 0 1 4.635362,-2.26626 62.424968,62.424955 0 0 1 4.806846,-1.87533 62.424968,62.424955 0 0 1 4.944792,-1.47223 62.424968,62.424955 0 0 1 5.049168,-1.05921 62.424968,62.424955 0 0 1 5.120019,-0.63781 62.424968,62.424955 0 0 1 5.155088,-0.21337 62.424968,62.424955 0 0 1 5.1551,0.21337 62.424968,62.424955 0 0 1 5.120009,0.63781 62.424968,62.424955 0 0 1 5.049164,1.05921 62.424968,62.424955 0 0 1 4.944794,1.47223 62.424968,62.424955 0 0 1 3.45273,1.34726 39.015611,39.015586 0 0 0 -0.409188,-0.4092 39.015611,39.015586 0 0 0 -3.173852,-2.57031 39.015611,39.015586 0 0 0 -3.424549,-2.22359 39.015611,39.015586 0 0 0 -3.638635,-1.85401 39.015611,39.015586 0 0 0 -3.813194,-1.46384 39.015611,39.015586 0 0 0 -3.944201,-1.05693 39.015611,39.015586 0 0 0 -4.033399,-0.63857 39.015611,39.015586 0 0 0 -4.078376,-0.21413 39.015611,39.015586 0 0 0 -4.07833,0.21413 39.015611,39.015586 0 0 0 -4.033397,0.63857 39.015611,39.015586 0 0 0 -3.944984,1.05693 39.015611,39.015586 0 0 0 -3.812413,1.46384 39.015611,39.015586 0 0 0 -3.638663,1.85401 39.015611,39.015586 0 0 0 -3.425299,2.22359 39.015611,39.015586 0 0 0 -3.173809,2.57031 39.015611,39.015586 0 0 0 -2.887306,2.88806 39.015611,39.015586 0 0 0 -2.446076,3.02067 z"
       inkscape:export-filename="C:\Users\Ryzen\Desktop\Designs\Projects\ExpenseSnake\icon-dark.png"
       inkscape:export-xdpi="96"
       inkscape:export-ydpi="96" />
    <path
       id="path972"
       style="opacity:1;fill:#99cc33;stroke:#000000;stroke-width:0.461887;stroke-opacity:1"
       d="m 29.957258,355.06506 a 23.409357,23.409357 0 0 1 0.739188,-1.49814 23.409357,23.409357 0 0 1 1.700811,-2.54592 23.409357,23.409357 0 0 1 2.019367,-2.30208 23.409357,23.409357 0 0 1 2.30208,-2.01935 23.409357,23.409357 0 0 1 2.545922,-1.70084 23.409357,23.409357 0 0 1 2.746348,-1.35488 23.409357,23.409357 0 0 1 2.899486,-0.98377 23.409357,23.409357 0 0 1 3.003153,-0.59742 23.409357,23.409357 0 0 1 3.05569,-0.20042 23.409357,23.409357 0 0 1 1.050066,0.0236 23.409357,23.409357 0 0 1 1.048549,0.0709 23.409357,23.409357 0 0 1 1.043975,0.1174 23.409357,23.409357 0 0 1 1.037121,0.16459 23.409357,23.409357 0 0 1 1.029495,0.21032 23.409357,23.409357 0 0 1 1.018818,0.25681 23.409357,23.409357 0 0 1 1.005859,0.30251 23.409357,23.409357 0 0 1 0.991392,0.34673 23.409357,23.409357 0 0 1 0.975392,0.39091 23.409357,23.409357 0 0 1 0.361206,0.16383 39.015611,39.015586 0 0 1 3.004669,-0.80469 39.015611,39.015586 0 0 1 4.033385,-0.63933 39.015611,39.015586 0 0 1 4.078345,-0.21338 39.015611,39.015586 0 0 1 1.361723,0.0236 39.015611,39.015586 0 0 1 1.359454,0.0717 39.015611,39.015586 0 0 1 1.357153,0.11812 39.015611,39.015586 0 0 1 1.351859,0.16612 39.015611,39.015586 0 0 1 1.344944,0.21336 39.015611,39.015586 0 0 1 1.336594,0.25985 39.015611,39.015586 0 0 1 1.326688,0.30634 39.015611,39.015586 0 0 1 1.316043,0.35206 39.015611,39.015586 0 0 1 1.302253,0.39852 39.015611,39.015586 0 0 1 1.287094,0.44351 39.015611,39.015586 0 0 1 1.27179,0.48769 39.015611,39.015586 0 0 1 1.253529,0.53189 39.015611,39.015586 0 0 1 1.234497,0.57609 39.015611,39.015586 0 0 1 1.213142,0.61801 39.015611,39.015586 0 0 1 1.191039,0.66068 39.015611,39.015586 0 0 1 1.167414,0.70105 39.015611,39.015586 0 0 1 1.14226,0.74145 39.015611,39.015586 0 0 1 1.115612,0.78107 39.015611,39.015586 0 0 1 1.087403,0.81994 39.015611,39.015586 0 0 1 1.058458,0.85727 39.015611,39.015586 0 0 1 1.027194,0.8931 39.015611,39.015586 0 0 1 0.995965,0.92891 39.015611,39.015586 0 0 1 0.963212,0.9632 39.015611,39.015586 0 0 1 0.928925,0.99596 39.015611,39.015586 0 0 1 0.89307,1.0272 39.015611,39.015586 0 0 1 0.85729,1.05845 39.015611,39.015586 0 0 1 0.81991,1.08741 39.015611,39.015586 0 0 1 0.15394,0.21946 39.015611,39.015586 0 0 0 0.11665,-1.33354 39.015611,39.015586 0 0 0 0.0671,-1.268 39.015611,39.015586 0 0 0 -0.31168,-0.90378 39.015611,39.015586 0 0 0 -0.48769,-1.27182 39.015611,39.015586 0 0 0 -0.53267,-1.25351 39.015611,39.015586 0 0 0 -0.57534,-1.23448 39.015611,39.015586 0 0 0 -0.61801,-1.21315 39.015611,39.015586 0 0 0 -0.66065,-1.19104 39.015611,39.015586 0 0 0 -0.701053,-1.16743 39.015611,39.015586 0 0 0 -0.741462,-1.14225 39.015611,39.015586 0 0 0 -0.781083,-1.11562 39.015611,39.015586 0 0 0 -0.819926,-1.0874 39.015611,39.015586 0 0 0 -0.85729,-1.05846 39.015611,39.015586 0 0 0 -0.89307,-1.0272 39.015611,39.015586 0 0 0 -0.928911,-0.99673 39.015611,39.015586 0 0 0 -0.963229,-0.96242 39.015611,39.015586 0 0 0 -0.995947,-0.92892 39.015611,39.015586 0 0 0 -1.027196,-0.89309 39.015611,39.015586 0 0 0 -1.058456,-0.85728 39.015611,39.015586 0 0 0 -1.087402,-0.81994 39.015611,39.015586 0 0 0 -1.115615,-0.78107 39.015611,39.015586 0 0 0 -1.142257,-0.74144 39.015611,39.015586 0 0 0 -1.167431,-0.70106 39.015611,39.015586 0 0 0 -1.191022,-0.66068 39.015611,39.015586 0 0 0 -1.213159,-0.61801 39.015611,39.015586 0 0 0 -1.234495,-0.57608 39.015611,39.015586 0 0 0 -1.253534,-0.53189 39.015611,39.015586 0 0 0 -1.271787,-0.4877 39.015611,39.015586 0 0 0 -1.28708,-0.4435 39.015611,39.015586 0 0 0 -1.302269,-0.39853 39.015611,39.015586 0 0 0 -1.316024,-0.35206 39.015611,39.015586 0 0 0 -1.326689,-0.30634 39.015611,39.015586 0 0 0 -1.336596,-0.25985 39.015611,39.015586 0 0 0 -1.344944,-0.21336 39.015611,39.015586 0 0 0 -1.351859,-0.16611 39.015611,39.015586 0 0 0 -1.357153,-0.11812 39.015611,39.015586 0 0 0 -1.359468,-0.0717 39.015611,39.015586 0 0 0 -1.361709,-0.0236 39.015611,39.015586 0 0 0 -4.078345,0.21337 39.015611,39.015586 0 0 0 -4.033399,0.63933 39.015611,39.015586 0 0 0 -3.944982,1.05692 39.015611,39.015586 0 0 0 -3.812399,1.46309 39.015611,39.015586 0 0 0 -3.638678,1.85401 39.015611,39.015586 0 0 0 -3.4253,2.22434 39.015611,39.015586 0 0 0 -3.173838,2.57031 39.015611,39.015586 0 0 0 -2.887306,2.88807 39.015611,39.015586 0 0 0 -2.570267,3.17306 39.015611,39.015586 0 0 0 -2.224369,3.4253 39.015611,39.015586 0 0 0 -1.854019,3.63866 39.015611,39.015586 0 0 0 -0.975394,2.54135 z M 81.611807,335.0208 a 2.9279529,2.9279485 0 0 1 0.904493,0.14319 2.9279529,2.9279485 0 0 1 0.816134,0.41529 2.9279529,2.9279485 0 0 1 0.647736,0.64774 2.9279529,2.9279485 0 0 1 0.416059,0.81688 2.9279529,2.9279485 0 0 1 0.143332,0.90453 2.9279529,2.9279485 0 0 1 -0.143332,0.90452 2.9279529,2.9279485 0 0 1 -0.416059,0.81612 2.9279529,2.9279485 0 0 1 -0.647736,0.64772 2.9279529,2.9279485 0 0 1 -0.816134,0.41606 2.9279529,2.9279485 0 0 1 -0.904493,0.14333 2.9279529,2.9279485 0 0 1 -0.905275,-0.14333 2.9279529,2.9279485 0 0 1 -0.816137,-0.41606 2.9279529,2.9279485 0 0 1 -0.647733,-0.64772 2.9279529,2.9279485 0 0 1 -0.415324,-0.81612 2.9279529,2.9279485 0 0 1 -0.144059,-0.90452 2.9279529,2.9279485 0 0 1 0.144059,-0.90453 2.9279529,2.9279485 0 0 1 0.415324,-0.81688 2.9279529,2.9279485 0 0 1 0.647733,-0.64774 2.9279529,2.9279485 0 0 1 0.816137,-0.41529 2.9279529,2.9279485 0 0 1 0.905275,-0.14319 z"
       inkscape:export-filename="C:\Users\Ryzen\Desktop\Designs\Projects\ExpenseSnake\icon-dark.png"
       inkscape:export-xdpi="96"
       inkscape:export-ydpi="96" />
    <path
       id="path974"
       style="opacity:1;fill:#669900;stroke:#000000;stroke-width:0.461887;stroke-opacity:1"
       d="m 27.65062,366.65695 a 23.409357,23.409357 0 0 0 0.032,0.48923 39.015611,39.015586 0 0 0 1.236767,3.22184 39.015611,39.015586 0 0 0 1.853975,3.63866 39.015611,39.015586 0 0 0 2.071969,3.18982 39.015611,39.015586 0 0 1 0,-0.007 39.015611,39.015586 0 0 1 0.639299,-4.03338 39.015611,39.015586 0 0 1 1.056938,-3.945 39.015611,39.015586 0 0 1 1.463089,-3.8124 39.015611,39.015586 0 0 1 1.85402,-3.63866 39.015611,39.015586 0 0 1 2.224354,-3.4253 39.015611,39.015586 0 0 1 2.570266,-3.17306 39.015611,39.015586 0 0 1 2.887307,-2.88807 39.015611,39.015586 0 0 1 3.173852,-2.57031 39.015611,39.015586 0 0 1 3.425286,-2.22358 39.015611,39.015586 0 0 1 3.638678,-1.85477 39.015611,39.015586 0 0 1 3.812416,-1.46309 39.015611,39.015586 0 0 1 0.940308,-0.25223 23.409357,23.409357 0 0 0 -0.361204,-0.16383 23.409357,23.409357 0 0 0 -0.975392,-0.39091 23.409357,23.409357 0 0 0 -0.991392,-0.34673 23.409357,23.409357 0 0 0 -1.005857,-0.30251 23.409357,23.409357 0 0 0 -1.01882,-0.25681 23.409357,23.409357 0 0 0 -1.029495,-0.21032 23.409357,23.409357 0 0 0 -1.037119,-0.1646 23.409357,23.409357 0 0 0 -1.043977,-0.11739 23.409357,23.409357 0 0 0 -1.048547,-0.0709 23.409357,23.409357 0 0 0 -1.050066,-0.0236 23.409357,23.409357 0 0 0 -3.055692,0.20042 23.409357,23.409357 0 0 0 -3.003151,0.59742 23.409357,23.409357 0 0 0 -2.899488,0.98377 23.409357,23.409357 0 0 0 -2.746348,1.35488 23.409357,23.409357 0 0 0 -2.54592,1.70084 23.409357,23.409357 0 0 0 -2.30208,2.01935 23.409357,23.409357 0 0 0 -2.019369,2.30208 23.409357,23.409357 0 0 0 -1.700809,2.54592 23.409357,23.409357 0 0 0 -0.739192,1.49814 39.015611,39.015586 0 0 0 -0.48768,1.27105 39.015611,39.015586 0 0 0 -1.056938,3.945 39.015611,39.015586 0 0 0 -0.639315,4.03338 39.015611,39.015586 0 0 0 -0.122689,2.34246 z"
       inkscape:export-filename="C:\Users\Ryzen\Desktop\Designs\Projects\ExpenseSnake\icon-dark.png"
       inkscape:export-xdpi="96"
       inkscape:export-ydpi="96" />
    <path
       id="path976"
       style="opacity:1;fill:#ff0000;stroke:#000000;stroke-width:0.461887;stroke-opacity:1"
       d="m 27.65062,366.65695 a 39.015611,39.015586 0 0 1 0.122689,-2.34245 39.015611,39.015586 0 0 1 0.639315,-4.03339 39.015611,39.015586 0 0 1 1.056936,-3.94499 39.015611,39.015586 0 0 1 0.487681,-1.27106 23.409357,23.409357 0 0 0 -0.615691,1.2482 23.409357,23.409357 0 0 0 -0.983783,2.89949 23.409357,23.409357 0 0 0 -0.597406,3.00313 23.409357,23.409357 0 0 0 -0.20044,3.05572 23.409357,23.409357 0 0 0 0.09069,1.38535 z"
       inkscape:export-filename="C:\Users\Ryzen\Desktop\Designs\Projects\ExpenseSnake\icon-dark.png"
       inkscape:export-xdpi="96"
       inkscape:export-ydpi="96" />
    <path
       id="path978"
       style="opacity:1;fill:#669900;stroke:#000000;stroke-width:0.461887;stroke-opacity:1"
       d="m 51.664256,388.63523 a 23.409357,23.409357 0 0 1 -0.694953,0.0457 23.409357,23.409357 0 0 1 -3.05569,-0.20042 23.409357,23.409357 0 0 1 -3.003153,-0.59742 23.409357,23.409357 0 0 1 -1.003601,-0.34063 39.015611,39.015586 0 0 0 1.147613,0.74526 39.015611,39.015586 0 0 0 3.638662,1.854 39.015611,39.015586 0 0 0 0.807007,0.30938 39.015611,39.015586 0 0 1 0.332212,-0.33224 39.015611,39.015586 0 0 1 1.831903,-1.48366 z"
       inkscape:export-filename="C:\Users\Ryzen\Desktop\Designs\Projects\ExpenseSnake\icon-dark.png"
       inkscape:export-xdpi="96"
       inkscape:export-ydpi="96" />
    <path
       id="path980"
       style="opacity:1;fill:#669900;stroke:#000000;stroke-width:0.461887;stroke-opacity:1"
       d="m 68.363244,380.86564 a 23.409357,23.409357 0 0 0 1.178107,-1.34344 23.409357,23.409357 0 0 0 1.124741,-1.6833 39.015611,39.015586 0 0 0 -0.829863,-0.0724 39.015611,39.015586 0 0 0 -1.359454,-0.0717 39.015611,39.015586 0 0 0 -1.361724,-0.0236 39.015611,39.015586 0 0 0 -4.07833,0.21412 39.015611,39.015586 0 0 0 -4.033399,0.63858 39.015611,39.015586 0 0 0 -3.944982,1.05692 39.015611,39.015586 0 0 0 -3.812415,1.46384 39.015611,39.015586 0 0 0 -3.638678,1.85401 39.015611,39.015586 0 0 0 -3.425286,2.22435 39.015611,39.015586 0 0 0 -1.780836,1.44174 39.015611,39.015586 0 0 0 1.505734,0.97768 23.409357,23.409357 0 0 0 1.003601,0.34063 23.409357,23.409357 0 0 0 3.003153,0.59742 23.409357,23.409357 0 0 0 3.05569,0.20042 23.409357,23.409357 0 0 0 0.694953,-0.0457 39.015611,39.015586 0 0 1 1.341935,-1.08664 39.015611,39.015586 0 0 1 3.425301,-2.22358 39.015611,39.015586 0 0 1 3.638678,-1.85401 39.015611,39.015586 0 0 1 3.812399,-1.46384 39.015611,39.015586 0 0 1 3.944981,-1.05694 39.015611,39.015586 0 0 1 0.535694,-0.0847 z"
       inkscape:export-filename="C:\Users\Ryzen\Desktop\Designs\Projects\ExpenseSnake\icon-dark.png"
       inkscape:export-xdpi="96"
       inkscape:export-ydpi="96" />
    <path
       id="path982"
       style="opacity:1;fill:#99cc33;stroke:#000000;stroke-width:0.461887;stroke-opacity:1"
       d="m 75.939296,380.09752 a 39.015611,39.015584 0 0 0 -4.078347,0.21414 39.015611,39.015584 0 0 0 -3.497705,0.55398 39.015611,39.015584 0 0 0 -0.535694,0.0846 39.015611,39.015584 0 0 0 -3.944981,1.05694 39.015611,39.015584 0 0 0 -3.812399,1.46384 39.015611,39.015584 0 0 0 -3.638678,1.85401 39.015611,39.015584 0 0 0 -3.425301,2.22358 39.015611,39.015584 0 0 0 -1.341935,1.08664 39.015611,39.015584 0 0 0 -1.831903,1.48366 39.015611,39.015584 0 0 0 -0.332212,0.33224 39.015611,39.015584 0 0 0 3.005406,1.1537 39.015611,39.015584 0 0 0 3.944984,1.05693 39.015611,39.015584 0 0 0 4.033397,0.63934 39.015611,39.015584 0 0 0 4.07833,0.21336 39.015611,39.015584 0 0 0 0.368078,-0.006 39.015611,39.015584 0 0 1 3.173055,-0.16688 39.015611,39.015584 0 0 1 0.04573,0.003 39.015611,39.015584 0 0 0 0.491515,-0.0426 39.015611,39.015584 0 0 0 1.351079,-0.16611 39.015611,39.015584 0 0 0 1.345722,-0.21337 39.015611,39.015584 0 0 0 1.336598,-0.25986 39.015611,39.015584 0 0 0 1.326643,-0.30632 39.015611,39.015584 0 0 0 1.31526,-0.35206 39.015611,39.015584 0 0 0 1.302298,-0.39854 39.015611,39.015584 0 0 0 1.287832,-0.44351 39.015611,39.015584 0 0 0 1.271831,-0.48768 39.015611,39.015584 0 0 0 1.253533,-0.5319 39.015611,39.015584 0 0 0 1.233714,-0.57609 39.015611,39.015584 0 0 0 1.213895,-0.618 39.015611,39.015584 0 0 0 1.191021,-0.6599 39.015611,39.015584 0 0 0 1.167432,-0.70183 39.015611,39.015584 0 0 0 1.141508,-0.74144 39.015611,39.015584 0 0 0 1.115612,-0.78109 39.015611,39.015584 0 0 0 1.088154,-0.81994 39.015611,39.015584 0 0 0 0.759747,-0.61495 39.015611,39.015584 0 0 0 -0.409985,-0.28728 39.015611,39.015584 0 0 0 -1.142258,-0.74145 39.015611,39.015584 0 0 0 -1.167416,-0.70106 39.015611,39.015584 0 0 0 -1.191039,-0.66066 39.015611,39.015584 0 0 0 -1.21388,-0.61801 39.015611,39.015584 0 0 0 -1.233757,-0.57533 39.015611,39.015584 0 0 0 -0.98834,-0.41988 39.015611,39.015584 0 0 0 -1.978212,-0.31318 39.015611,39.015584 0 0 0 -4.078332,-0.21414 z"
       inkscape:export-filename="C:\Users\Ryzen\Desktop\Designs\Projects\ExpenseSnake\icon-dark.png"
       inkscape:export-xdpi="96"
       inkscape:export-ydpi="96" />
    <path
       id="path984"
       style="opacity:1;fill:#669900;stroke:#000000;stroke-width:0.461887;stroke-opacity:1"
       d="m 81.995838,380.62484 a 39.015611,39.015586 0 0 0 -0.26515,-0.1128 39.015611,39.015586 0 0 0 -1.271831,-0.4877 39.015611,39.015586 0 0 0 -1.287832,-0.44349 39.015611,39.015586 0 0 0 -1.302298,-0.39777 39.015611,39.015586 0 0 0 -1.31526,-0.35283 39.015611,39.015586 0 0 0 -1.326688,-0.30632 39.015611,39.015586 0 0 0 -1.336596,-0.25985 39.015611,39.015586 0 0 0 -1.345725,-0.21337 39.015611,39.015586 0 0 0 -1.351062,-0.16536 39.015611,39.015586 0 0 0 -0.527304,-0.0464 23.409357,23.409357 0 0 1 -1.124741,1.6833 23.409357,23.409357 0 0 1 -1.178107,1.34344 39.015611,39.015586 0 0 1 3.497705,-0.55398 39.015611,39.015586 0 0 1 4.078347,-0.21414 39.015611,39.015586 0 0 1 4.07833,0.21414 39.015611,39.015586 0 0 1 1.978212,0.31318 z"
       inkscape:export-filename="C:\Users\Ryzen\Desktop\Designs\Projects\ExpenseSnake\icon-dark.png"
       inkscape:export-xdpi="96"
       inkscape:export-ydpi="96" />
    <path
       id="path986"
       style="opacity:1;fill:#f9f9f9;stroke:#000000;stroke-width:0.461887;stroke-opacity:1"
       d="m 105.17203,420.20358 a 39.015611,39.015586 0 0 1 0.0373,0.0975 39.015611,39.015586 0 0 1 0.49075,1.83115 39.015611,39.015586 0 0 0 0.21641,-1.36708 39.015611,39.015586 0 0 0 0.0618,-1.17122 62.424968,62.424955 0 0 1 -0.80622,0.60962 z"
       inkscape:export-filename="C:\Users\Ryzen\Desktop\Designs\Projects\ExpenseSnake\icon-dark.png"
       inkscape:export-xdpi="96"
       inkscape:export-ydpi="96" />
    <path
       id="path988"
       style="opacity:1;fill:#669900;stroke:#000000;stroke-width:0.461887;stroke-opacity:1"
       d="m 105.17203,420.20358 a 62.424968,62.424955 0 0 0 0.80623,-0.60961 39.015611,39.015586 0 0 0 0.15238,-2.90713 39.015611,39.015586 0 0 0 -0.0236,-1.36174 39.015611,39.015586 0 0 0 -0.0717,-1.35945 39.015611,39.015586 0 0 0 -0.11884,-1.35715 39.015611,39.015586 0 0 0 -0.16535,-1.35108 39.015611,39.015586 0 0 0 -0.21337,-1.34572 39.015611,39.015586 0 0 0 -0.25984,-1.3366 39.015611,39.015586 0 0 0 -0.30635,-1.32667 39.015611,39.015586 0 0 0 -0.35283,-1.31526 39.015611,39.015586 0 0 0 -0.39776,-1.3023 39.015611,39.015586 0 0 0 -0.43206,-1.25429 39.015611,39.015586 0 0 1 -0.57688,0.82452 39.015611,39.015586 0 0 1 -0.81991,1.0874 39.015611,39.015586 0 0 1 -0.85729,1.05846 39.015611,39.015586 0 0 1 -0.89307,1.02719 39.015611,39.015586 0 0 1 -0.928925,0.99673 39.015611,39.015586 0 0 1 -0.496825,0.49684 39.015611,39.015586 0 0 1 0.451097,0.55705 39.015611,39.015586 0 0 1 2.224353,3.42452 39.015611,39.015586 0 0 1 1.85399,3.63866 39.015611,39.015586 0 0 1 1.42652,3.71563 z"
       inkscape:export-filename="C:\Users\Ryzen\Desktop\Designs\Projects\ExpenseSnake\icon-dark.png"
       inkscape:export-xdpi="96"
       inkscape:export-ydpi="96" />
    <path
       style="opacity:1;fill:#99cc33;stroke:#000000;stroke-width:0.439432;stroke-miterlimit:4;stroke-dasharray:none"
       d="m 40.713631,385.88887 c -2.975134,-1.46739 -5.428787,-3.89863 -6.964058,-6.90052 -0.370023,-0.72351 -0.623981,-1.41328 -0.62311,-1.69256 0.0046,-1.54117 1.037533,-6.03363 2.036298,-8.85718 1.453209,-4.10822 4.048883,-9.22477 5.24048,-10.08901 0.246244,-0.17859 1.104348,-0.32263 1.137718,-0.29151 0.03362,0.0311 -0.0553,0.43561 -0.197034,0.89888 -0.661508,2.16275 -0.757992,5.67218 -0.221293,8.04986 1.431796,6.34338 6.88555,11.29262 13.371897,12.13496 l 1.024112,0.13301 -1.834511,0.66681 c -3.946545,1.43454 -7.15959,3.17627 -10.227005,5.54386 -0.712811,0.55018 -1.347952,1.00104 -1.411419,1.0019 -0.06357,7.8e-4 -0.662953,-0.26845 -1.33207,-0.59848 z"
       id="path990"
       sodipodi:nodetypes="sscssccsscsssss"
       inkscape:export-filename="C:\Users\Ryzen\Desktop\Designs\Projects\ExpenseSnake\icon-dark.png"
       inkscape:export-xdpi="96"
       inkscape:export-ydpi="96" />
    <path
       style="opacity:1;fill:#99cc33;stroke:#000000;stroke-width:0.308193;stroke-miterlimit:4;stroke-dasharray:none"
       d="m 40.536532,358.14112 c 0,-0.0147 0.582969,-0.7771 0.836573,-1.09398 0.227973,-0.28483 0.513766,-0.63154 0.517628,-0.62796 0.0046,0.002 -0.02183,0.0619 -0.05337,0.13301 -0.164388,0.37023 -0.242599,0.75897 -0.233356,1.1594 l 0.0046,0.193 -0.140237,0.0118 c -0.234713,0.0204 -0.679765,0.12475 -0.866259,0.20302 -0.03599,0.0149 -0.06531,0.0246 -0.06548,0.0212 z"
       id="path992"
       inkscape:export-filename="C:\Users\Ryzen\Desktop\Designs\Projects\ExpenseSnake\icon-dark.png"
       inkscape:export-xdpi="96"
       inkscape:export-ydpi="96" />
  </g>
</svg>
